SplineFontDB: 3.0
FontName: NimbusSanL-ReguCondItal
FullName: Nimbus Sans L Regular Condensed Italic
FamilyName: Nimbus Sans L
Weight: Regular
Copyright: Copyright (URW)++,Copyright 2006 by (URW)++ Design & Development
Version: 1.10
ItalicAngle: -12
UnderlinePosition: -106
UnderlineWidth: 53
Ascent: 800
Descent: 200
LayerCount: 2
Layer: 0 0 "Back"  1
Layer: 1 0 "Fore"  0
UniqueID: 5082802
OS2Version: 0
OS2_WeightWidthSlopeOnly: 0
OS2_UseTypoMetrics: 0
CreationTime: 1464335511
ModificationTime: 1464335511
OS2TypoAscent: 0
OS2TypoAOffset: 1
OS2TypoDescent: 0
OS2TypoDOffset: 1
OS2TypoLinegap: 0
OS2WinAscent: 0
OS2WinAOffset: 1
OS2WinDescent: 0
OS2WinDOffset: 1
HheadAscent: 0
HheadAOffset: 1
HheadDescent: 0
HheadDOffset: 1
OS2Vendor: 'PfEd'
DEI: 91125
Encoding: UnicodeBmp
UnicodeInterp: none
NameList: Adobe Glyph List
DisplaySize: -24
AntiAlias: 1
FitToEm: 1
BeginPrivate: 7
BlueValues 31 [-23 0 524 544 729 749 686 709]
BlueScale 8 0.039625
StdHW 4 [78]
StdVW 4 [71]
StemSnapH 7 [78 83]
StemSnapV 2 []
ForceBold 5 false
EndPrivate
BeginChars: 65537 243

StartChar: A
Encoding: 65 65 1
Width: 547
Flags: MW
HStem: 0 20 219 78<232 422 232 430 196 422> 709 20<354 453 453 453>
LayerCount: 2
Fore
SplineSet
430 219 m 1
 196 219 l 1
 95 0 l 1
 14 0 l 1
 354 729 l 1
 453 729 l 1
 535 0 l 1
 452 0 l 1
 430 219 l 1
422 297 m 1
 389 630 l 1
 232 297 l 1
 422 297 l 1
EndSplineSet
EndChar

StartChar: B
Encoding: 66 66 2
Width: 547
Flags: W
HStem: 0 82<156 336> 333 82<214 362 362 386 200 362> 647 82<255 403 255 255>
VStem: 472 79<224 272> 504 79<541.5 591>
LayerCount: 2
Fore
SplineSet
65 0 m 1xf0
 192 729 l 1
 435 729 l 2
 491 729 526 714 554 678 c 0
 575 651 583 625 583 584 c 0xe8
 583 494 544 424 472 384 c 1
 530 354 551 320 551 258 c 0
 551 190 533 132 495 83 c 0
 452 26 402 0 336 0 c 2
 65 0 l 1xf0
214 415 m 1
 362 415 l 2
 418 415 451 429 476 465 c 0
 495 491 504 522 504 561 c 0
 504 621 474 647 403 647 c 2
 255 647 l 1
 214 415 l 1
156 82 m 1xf0
 342 82 l 2
 389 82 420 100 446 142 c 0
 464 172 472 201 472 241 c 0
 472 303 444 333 386 333 c 2
 200 333 l 1
 156 82 l 1xf0
EndSplineSet
EndChar

StartChar: C
Encoding: 67 67 3
Width: 592
Flags: MW
HStem: -23 81<270.5 344> 660 81<390 464.5>
VStem: 92 79<207 304.5 198.5 306.5>
LayerCount: 2
Fore
SplineSet
632 503 m 1
 553 503 l 1
 546 611 506 660 423 660 c 0
 345 660 285 615 234 520 c 0
 194 444 171 350 171 259 c 0
 171 138 228 58 313 58 c 0
 379 58 442 97 477 159 c 0
 490 183 501 208 523 266 c 1
 603 266 l 1
 573 180 546 125 513 82 c 0
 459 13 386 -23 302 -23 c 0
 228 -23 176 4 139 62 c 0
 108 110 92 172 92 242 c 0
 92 371 135 513 203 608 c 0
 266 697 343 741 437 741 c 0
 516 741 576 702 608 628 c 0
 622 596 629 559 632 503 c 1
EndSplineSet
EndChar

StartChar: D
Encoding: 68 68 4
Width: 592
Flags: MW
HStem: 0 82<164 304> 647 82<263 403 263 263>
VStem: 543 79<434.5 523.5 422.5 533.5>
LayerCount: 2
Fore
SplineSet
73 0 m 1
 200 729 l 1
 431 729 l 2
 488 729 533 709 565 671 c 0
 599 630 622 558 622 489 c 0
 622 356 582 213 522 127 c 0
 462 42 391 0 304 0 c 2
 73 0 l 1
164 82 m 1
 305 82 l 2
 382 82 446 127 488 211 c 0
 520 276 543 388 543 481 c 0
 543 586 491 647 403 647 c 2
 263 647 l 1
 164 82 l 1
EndSplineSet
EndChar

StartChar: E
Encoding: 69 69 5
Width: 547
Flags: MW
HStem: 0 82<165 503> 332 82<209 548 223 533> 647 82<264 602 264 264>
LayerCount: 2
Fore
SplineSet
209 332 m 1
 165 82 l 1
 517 82 l 1
 503 0 l 1
 74 0 l 1
 201 729 l 1
 616 729 l 1
 602 647 l 1
 264 647 l 1
 223 414 l 1
 548 414 l 1
 533 332 l 1
 209 332 l 1
EndSplineSet
EndChar

StartChar: F
Encoding: 70 70 6
Width: 501
Flags: MW
HStem: 0 20 332 82<209 508 223 494> 647 82<264 588 264 264>
LayerCount: 2
Fore
SplineSet
209 332 m 1
 151 0 l 1
 74 0 l 1
 201 729 l 1
 602 729 l 1
 588 647 l 1
 264 647 l 1
 223 414 l 1
 508 414 l 1
 494 332 l 1
 209 332 l 1
EndSplineSet
EndChar

StartChar: G
Encoding: 71 71 7
Width: 638
Flags: MW
HStem: -23 81<281.5 336.5> 303 82<401 568 386 650> 660 81<407.5 486>
VStem: 89 79<216 321 206 328>
LayerCount: 2
Fore
SplineSet
650 385 m 1
 582 -4 l 1
 533 -4 l 1
 530 86 l 1
 498 53 483 40 464 26 c 0
 419 -5 363 -23 310 -23 c 0
 251 -23 194 1 157 41 c 0
 115 87 89 172 89 260 c 0
 89 396 139 535 222 630 c 1
 287 706 361 741 454 741 c 0
 583 741 663 658 663 525 c 2
 663 519 l 1
 663 515 l 1
 663 508 l 1
 588 508 l 1
 586 604 532 660 440 660 c 0
 357 660 287 616 236 531 c 0
 194 462 168 364 168 278 c 0
 168 134 226 58 337 58 c 0
 394 58 441 79 485 123 c 0
 527 165 550 211 563 277 c 2
 568 303 l 1
 386 303 l 1
 401 385 l 1
 650 385 l 1
EndSplineSet
EndChar

StartChar: H
Encoding: 72 72 8
Width: 592
Flags: MW
HStem: 0 20 332 82<217 509 203 523> 709 20<195 272 272 272 578 655 655 655>
LayerCount: 2
Fore
SplineSet
509 332 m 1
 203 332 l 1
 145 0 l 1
 68 0 l 1
 195 729 l 1
 272 729 l 1
 217 414 l 1
 523 414 l 1
 578 729 l 1
 655 729 l 1
 528 0 l 1
 451 0 l 1
 509 332 l 1
EndSplineSet
EndChar

StartChar: I
Encoding: 73 73 9
Width: 228
Flags: MW
HStem: 0 20 709 20<209 286 286 286>
LayerCount: 2
Fore
SplineSet
286 729 m 1
 159 0 l 1
 82 0 l 1
 209 729 l 1
 286 729 l 1
EndSplineSet
EndChar

StartChar: J
Encoding: 74 74 10
Width: 410
Flags: MW
HStem: -23 81<169 206.5 169 230> 709 20<400 477 477 477>
VStem: 39 79<111 128>
LayerCount: 2
Fore
SplineSet
400 729 m 1
 477 729 l 1
 382 182 l 2
 359 52 284 -23 176 -23 c 0
 132 -23 105 -13 81 13 c 0
 55 40 39 81 39 120 c 0
 39 136 41 153 44 170 c 2
 55 234 l 1
 132 234 l 1
 121 168 l 2
 119 156 118 147 118 134 c 0
 118 88 147 58 191 58 c 0
 222 58 253 75 272 102 c 0
 290 128 301 160 310 216 c 2
 400 729 l 1
EndSplineSet
EndChar

StartChar: K
Encoding: 75 75 11
Width: 547
Flags: MW
HStem: 0 20 709 20<192 269 269 269 568 667 667 667>
LayerCount: 2
Fore
SplineSet
185 249 m 1
 142 0 l 1
 65 0 l 1
 192 729 l 1
 269 729 l 1
 204 356 l 1
 568 729 l 1
 667 729 l 1
 371 431 l 1
 540 0 l 1
 450 0 l 1
 312 376 l 1
 185 249 l 1
EndSplineSet
EndChar

StartChar: L
Encoding: 76 76 12
Width: 456
Flags: MW
HStem: 0 82<157 438> 709 20<193 270 270 270>
LayerCount: 2
Fore
SplineSet
270 729 m 1
 157 82 l 1
 452 82 l 1
 438 0 l 1
 66 0 l 1
 193 729 l 1
 270 729 l 1
EndSplineSet
EndChar

StartChar: M
Encoding: 77 77 13
Width: 683
Flags: MW
HStem: 0 20 709 20<188 294 294 294 643 751 751 751>
LayerCount: 2
Fore
SplineSet
383 0 m 1
 303 0 l 1
 239 605 l 1
 134 0 l 1
 61 0 l 1
 188 729 l 1
 294 729 l 1
 359 102 l 1
 643 729 l 1
 751 729 l 1
 624 0 l 1
 551 0 l 1
 656 605 l 1
 383 0 l 1
EndSplineSet
EndChar

StartChar: N
Encoding: 78 78 14
Width: 592
Flags: MW
HStem: 0 20 709 20<189 274 274 274 583 656 656 656>
LayerCount: 2
Fore
SplineSet
656 729 m 1
 529 0 l 1
 443 0 l 1
 238 591 l 1
 135 0 l 1
 62 0 l 1
 189 729 l 1
 274 729 l 1
 479 131 l 1
 583 729 l 1
 656 729 l 1
EndSplineSet
EndChar

StartChar: O
Encoding: 79 79 15
Width: 638
Flags: MW
HStem: -23 81<304.5 358.5> 660 81<395 470.5 395 483>
VStem: 85 79<241 317 241 329.5> 600 79<402 511 385 513>
LayerCount: 2
Fore
SplineSet
440 741 m 0
 501 741 556 722 596 689 c 0
 647 646 679 558 679 464 c 0
 679 306 618 148 520 54 c 0
 469 5 397 -23 320 -23 c 0
 250 -23 184 6 145 54 c 0
 106 102 85 176 85 264 c 0
 85 395 131 530 208 622 c 0
 274 702 350 741 440 741 c 0
430 660 m 0
 350 660 278 612 229 526 c 0
 188 454 164 362 164 272 c 0
 164 210 174 168 197 130 c 0
 224 87 278 58 331 58 c 0
 413 58 485 105 535 192 c 0
 576 263 600 358 600 446 c 0
 600 580 536 660 430 660 c 0
EndSplineSet
EndChar

StartChar: P
Encoding: 80 80 16
Width: 547
Flags: MW
HStem: 0 20 309 82<206 379 220 379 379 393> 647 82<265 424 265 265>
VStem: 522 79<531 567>
LayerCount: 2
Fore
SplineSet
206 309 m 1
 152 0 l 1
 75 0 l 1
 202 729 l 1
 450 729 l 2
 551 729 601 675 601 567 c 0
 601 486 572 412 520 361 c 0
 484 325 445 309 393 309 c 2
 206 309 l 1
220 391 m 1
 379 391 l 2
 433 391 468 410 496 455 c 0
 515 486 522 512 522 550 c 0
 522 584 520 592 506 611 c 0
 489 636 464 647 424 647 c 2
 265 647 l 1
 220 391 l 1
EndSplineSet
EndChar

StartChar: Q
Encoding: 81 81 17
Width: 638
Flags: MW
HStem: -23 81<307 351> 660 81<403.5 458>
VStem: 85 79<241.5 317 241.5 340.5> 600 79<386 475.5>
LayerCount: 2
Fore
SplineSet
601 -1 m 1
 552 -59 l 1
 480 28 l 1
 420 -11 383 -23 319 -23 c 0
 260 -23 205 -4 167 30 c 0
 117 74 85 165 85 263 c 0
 85 418 146 568 247 664 c 0
 299 714 367 741 440 741 c 0
 499 741 557 722 596 689 c 0
 647 645 679 556 679 458 c 0
 679 313 628 176 537 76 c 1
 601 -1 l 1
429 205 m 1
 490 132 l 1
 561 216 600 326 600 446 c 0
 600 505 589 551 566 588 c 0
 539 632 486 660 430 660 c 0
 350 660 278 612 229 526 c 0
 188 455 164 362 164 272 c 0
 164 211 174 168 197 130 c 0
 225 86 278 58 336 58 c 0
 369 58 392 65 433 87 c 1
 382 149 l 1
 429 205 l 1
EndSplineSet
EndChar

StartChar: R
Encoding: 82 82 18
Width: 592
Flags: W
HStem: 0 20 314 82<208 411 222 404> 647 82<266 455 266 266>
VStem: 461 83<36.5 83> 487 79<256 263> 552 79<544 577>
LayerCount: 2
Fore
SplineSet
208 314 m 1xe8
 153 0 l 1
 76 0 l 1
 203 729 l 1
 479 729 l 2
 584 729 631 682 631 576 c 0xe4
 631 512 610 448 576 409 c 0
 563 394 549 382 516 360 c 1
 554 330 566 307 566 264 c 0xe8
 566 248 563 225 548 126 c 0
 546 108 544 90 544 76 c 0
 544 52 549 36 561 23 c 1
 557 0 l 1
 464 0 l 1
 461 18 461 26 461 47 c 0xf0
 461 75 463 91 470 125 c 0
 486 207 487 214 487 239 c 0
 487 287 458 314 404 314 c 2
 208 314 l 1xe8
222 396 m 1
 411 396 l 2
 466 396 500 413 525 453 c 0
 542 482 552 520 552 559 c 0
 552 595 538 625 514 637 c 0
 502 644 481 647 455 647 c 2
 266 647 l 1
 222 396 l 1
EndSplineSet
EndChar

StartChar: S
Encoding: 83 83 19
Width: 547
Flags: W
HStem: -23 81<237.5 312> 660 81<358.5 408.5>
VStem: 73 75<146 180.5> 146 79<495.5 518.5> 470 79<208.5 233> 511 75<549.5 592>
LayerCount: 2
Fore
SplineSet
579 515 m 1xd4
 507 515 l 1
 508 528 l 1
 510 540 511 548 511 551 c 0
 511 576 499 612 484 629 c 0
 467 649 432 660 385 660 c 0
 290 660 225 602 225 518 c 0xd4
 225 473 243 454 308 432 c 2
 449 383 l 2
 487 370 511 349 529 315 c 0
 541 291 549 261 549 237 c 0
 549 180 517 102 474 56 c 0
 425 5 354 -23 270 -23 c 0
 146 -23 73 49 73 170 c 0
 73 191 75 207 80 232 c 1
 152 232 l 1
 149 210 148 201 148 191 c 0
 148 101 191 58 284 58 c 0
 352 58 401 77 434 118 c 1
 456 143 470 180 470 209 c 0xe8
 470 257 443 286 377 309 c 2
 237 357 l 2
 182 376 146 429 146 492 c 0
 146 545 173 618 208 660 c 0
 253 714 317 741 400 741 c 0
 464 741 509 724 541 689 c 0
 569 658 586 613 586 571 c 0
 586 559 584 546 579 515 c 1xd4
EndSplineSet
EndChar

StartChar: T
Encoding: 84 84 20
Width: 501
Flags: MW
HStem: 0 20 647 82<144 327 130 614 404 599 404 404>
LayerCount: 2
Fore
SplineSet
404 647 m 1
 292 0 l 1
 215 0 l 1
 327 647 l 1
 130 647 l 1
 144 729 l 1
 614 729 l 1
 599 647 l 1
 404 647 l 1
EndSplineSet
EndChar

StartChar: U
Encoding: 85 85 21
Width: 592
Flags: MW
HStem: -23 81<272.5 359 272.5 367> 709 20<197 274 274 274 579 656 656 656>
VStem: 102 79<139 163>
LayerCount: 2
Fore
SplineSet
579 729 m 1
 656 729 l 1
 567 217 l 2
 542 71 436 -23 298 -23 c 0
 235 -23 180 -2 147 35 c 0
 121 65 102 114 102 155 c 0
 102 171 107 217 113 251 c 2
 197 729 l 1
 274 729 l 1
 185 217 l 2
 182 202 181 188 181 174 c 0
 181 104 233 58 312 58 c 0
 406 58 473 118 490 217 c 2
 579 729 l 1
EndSplineSet
EndChar

StartChar: V
Encoding: 86 86 22
Width: 547
Flags: MW
HStem: 0 20 709 20<152 232 232 232 575 656 656 656>
LayerCount: 2
Fore
SplineSet
322 0 m 1
 240 0 l 1
 152 729 l 1
 232 729 l 1
 300 112 l 1
 575 729 l 1
 656 729 l 1
 322 0 l 1
EndSplineSet
EndChar

StartChar: W
Encoding: 87 87 23
Width: 774
Flags: MW
HStem: 0 20 709 20<145 227 227 227 476 554 554 554 804 889 889 889>
LayerCount: 2
Fore
SplineSet
610 0 m 1
 526 0 l 1
 493 592 l 1
 255 0 l 1
 171 0 l 1
 145 729 l 1
 227 729 l 1
 239 137 l 1
 476 729 l 1
 554 729 l 1
 588 137 l 1
 804 729 l 1
 889 729 l 1
 610 0 l 1
EndSplineSet
EndChar

StartChar: X
Encoding: 88 88 24
Width: 547
Flags: MW
HStem: 0 20 709 20<159 252 252 252 558 651 651 651>
LayerCount: 2
Fore
SplineSet
387 374 m 1
 533 0 l 1
 438 0 l 1
 329 304 l 1
 113 0 l 1
 18 0 l 1
 296 374 l 1
 159 729 l 1
 252 729 l 1
 354 444 l 1
 558 729 l 1
 651 729 l 1
 387 374 l 1
EndSplineSet
EndChar

StartChar: Y
Encoding: 89 89 25
Width: 547
Flags: MW
HStem: 0 20 709 20<138 230 230 230 578 669 669 669>
LayerCount: 2
Fore
SplineSet
367 286 m 1
 318 0 l 1
 240 0 l 1
 290 286 l 1
 138 729 l 1
 230 729 l 1
 341 372 l 1
 578 729 l 1
 669 729 l 1
 367 286 l 1
EndSplineSet
EndChar

StartChar: Z
Encoding: 90 90 26
Width: 501
Flags: MW
HStem: 0 82<134 479> 647 82<174 493 160 604>
LayerCount: 2
Fore
SplineSet
604 729 m 1
 590 645 l 1
 134 82 l 1
 493 82 l 1
 479 0 l 1
 23 0 l 1
 38 84 l 1
 493 647 l 1
 160 647 l 1
 174 729 l 1
 604 729 l 1
EndSplineSet
EndChar

StartChar: AE
Encoding: 198 198 27
Width: 820
Flags: MW
HStem: 0 82<475 779> 214 81<240 421 200 435> 332 82<533 806 519 820> 647 82<414 496 414 414 573 877 573 573>
LayerCount: 2
Fore
SplineSet
421 214 m 1
 200 214 l 1
 93 0 l 1
 9 0 l 1
 381 729 l 1
 891 729 l 1
 877 647 l 1
 573 647 l 1
 533 414 l 1
 820 414 l 1
 806 332 l 1
 519 332 l 1
 475 82 l 1
 793 82 l 1
 779 0 l 1
 384 0 l 1
 421 214 l 1
435 295 m 1
 496 647 l 1
 414 647 l 1
 240 295 l 1
 435 295 l 1
EndSplineSet
EndChar

StartChar: OE
Encoding: 338 338 28
Width: 820
Flags: W
HStem: -23 81<249.5 308.5> 0 82<520 785> 327 82<563 846 577 831> 647 82<619 895 619 619> 660 81<370.5 430.5>
VStem: 83 79<170.5 268.5 170.5 290.5>
LayerCount: 2
Fore
SplineSet
563 327 m 1x34
 520 82 l 1
 799 82 l 1
 785 0 l 1
 429 0 l 1x64
 442 77 l 1
 396 8 344 -23 273 -23 c 0
 159 -23 83 73 83 217 c 0
 83 364 132 536 199 623 c 0
 255 697 333 741 408 741 c 0x8c
 475 741 518 713 543 653 c 1
 556 729 l 1
 909 729 l 1
 895 647 l 1
 619 647 l 1
 577 409 l 1
 846 409 l 1
 831 327 l 1
 563 327 l 1x34
461 182 m 1x8c
 523 539 l 1
 508 621 466 660 395 660 c 0
 320 660 259 610 217 515 c 0
 187 446 162 315 162 222 c 0
 162 119 210 58 289 58 c 0
 358 58 415 99 461 182 c 1x8c
EndSplineSet
EndChar

StartChar: Oslash
Encoding: 216 216 29
Width: 638
Flags: W
HStem: -23 81<293.5 346.5> 660 81<380.5 444> 715 20<682 682>
VStem: 72 79<242 331.5> 587 79<401 464>
LayerCount: 2
Fore
SplineSet
26 15 m 1xb8
 103 100 l 1
 84 142 72 204 72 268 c 0
 72 395 118 529 194 622 c 0
 260 703 335 741 426 741 c 0xd8
 505 741 575 709 611 657 c 1
 682 735 l 1
 711 696 l 1
 635 613 l 1
 656 569 666 518 666 461 c 0
 666 305 604 147 507 54 c 0
 456 6 383 -23 310 -23 c 0
 234 -23 171 5 129 57 c 1
 55 -24 l 1
 26 15 l 1xb8
165 168 m 1
 551 592 l 1
 521 635 472 660 416 660 c 0
 267 660 151 487 151 264 c 0
 151 220 154 200 165 168 c 1
574 546 m 1
 188 123 l 1
 216 83 266 58 321 58 c 0
 399 58 474 107 522 192 c 0
 562 261 587 359 587 443 c 0
 587 485 582 520 574 546 c 1
EndSplineSet
EndChar

StartChar: Adieresis
Encoding: 196 196 30
Width: 547
Flags: MW
HStem: 0 20 219 78<232 422 232 430 196 422> 709 20<354 453 453 453> 811 103<325 393 307 411 325 439 457 525>
LayerCount: 2
Fore
SplineSet
430 219 m 1
 196 219 l 1
 95 0 l 1
 14 0 l 1
 354 729 l 1
 453 729 l 1
 535 0 l 1
 452 0 l 1
 430 219 l 1
422 297 m 1
 389 630 l 1
 232 297 l 1
 422 297 l 1
411 914 m 1
 393 811 l 1
 307 811 l 1
 325 914 l 1
 411 914 l 1
543 914 m 1
 525 811 l 1
 439 811 l 1
 457 914 l 1
 543 914 l 1
EndSplineSet
EndChar

StartChar: Aacute
Encoding: 193 193 31
Width: 547
Flags: MW
HStem: 0 20 219 78<232 422 232 430 196 422> 709 20<354 453 453 453>
LayerCount: 2
Fore
SplineSet
430 219 m 1
 196 219 l 1
 95 0 l 1
 14 0 l 1
 354 729 l 1
 453 729 l 1
 535 0 l 1
 452 0 l 1
 430 219 l 1
422 297 m 1
 389 630 l 1
 232 297 l 1
 422 297 l 1
455 939 m 1
 547 939 l 1
 399 791 l 1
 350 791 l 1
 455 939 l 1
EndSplineSet
EndChar

StartChar: Agrave
Encoding: 192 192 32
Width: 547
Flags: MW
HStem: 0 20 219 78<232 422 232 430 196 422> 709 20<354 453 453 453>
LayerCount: 2
Fore
SplineSet
430 219 m 1
 196 219 l 1
 95 0 l 1
 14 0 l 1
 354 729 l 1
 453 729 l 1
 535 0 l 1
 452 0 l 1
 430 219 l 1
422 297 m 1
 389 630 l 1
 232 297 l 1
 422 297 l 1
396 939 m 1
 455 791 l 1
 411 791 l 1
 309 939 l 1
 396 939 l 1
EndSplineSet
EndChar

StartChar: Acircumflex
Encoding: 194 194 33
Width: 547
Flags: MW
HStem: 0 20 219 78<232 422 232 430 196 422> 709 20<354 453 453 453>
LayerCount: 2
Fore
SplineSet
430 219 m 1
 196 219 l 1
 95 0 l 1
 14 0 l 1
 354 729 l 1
 453 729 l 1
 535 0 l 1
 452 0 l 1
 430 219 l 1
422 297 m 1
 389 630 l 1
 232 297 l 1
 422 297 l 1
399 940 m 1
 476 940 l 1
 529 790 l 1
 477 790 l 1
 431 889 l 1
 346 790 l 1
 294 790 l 1
 399 940 l 1
EndSplineSet
EndChar

StartChar: Atilde
Encoding: 195 195 34
Width: 547
Flags: W
HStem: 0 20 219 78<232 422 232 430 196 422> 709 20<354 453 453 453> 811 70<471.5 482.5 471.5 487.5> 843 70<353 364.5>
LayerCount: 2
Fore
SplineSet
430 219 m 1xf0
 196 219 l 1
 95 0 l 1
 14 0 l 1
 354 729 l 1
 453 729 l 1
 535 0 l 1
 452 0 l 1
 430 219 l 1xf0
422 297 m 1
 389 630 l 1
 232 297 l 1
 422 297 l 1
514 918 m 1
 558 918 l 1
 540 853 505 811 470 811 c 0x10
 453 811 437 816 384 838 c 0
 377 841 368 843 361 843 c 0
 345 843 337 837 327 819 c 2
 322 810 l 1
 278 810 l 1
 288 847 295 864 305 879 c 0
 319 900 342 913 363 913 c 0x08
 378 913 391 909 423 896 c 0
 443 888 468 881 475 881 c 0
 490 881 500 890 514 918 c 1
EndSplineSet
EndChar

StartChar: Aring
Encoding: 197 197 35
Width: 547
Flags: MW
HStem: 0 20 219 78<232 422 232 430 196 422> 709 20<354 453 453 453> 778 44<408 426.5 408 430> 909 44<425 440>
VStem: 459 37<861 885.5>
LayerCount: 2
Fore
SplineSet
430 219 m 1
 196 219 l 1
 95 0 l 1
 14 0 l 1
 354 729 l 1
 453 729 l 1
 535 0 l 1
 452 0 l 1
 430 219 l 1
422 297 m 1
 389 630 l 1
 232 297 l 1
 422 297 l 1
438 953 m 0
 472 953 496 925 496 886 c 0
 496 830 453 778 407 778 c 0
 374 778 349 808 349 849 c 0
 349 903 392 953 438 953 c 0
387 865 m 2
 387 857 l 1
 387 849 l 2
 387 835 401 822 415 822 c 0
 438 822 459 847 459 875 c 0
 459 896 449 909 431 909 c 0
 419 909 410 905 403 897 c 0
 395 888 387 872 387 865 c 2
EndSplineSet
EndChar

StartChar: Ccedilla
Encoding: 199 199 36
Width: 592
Flags: MW
HStem: -214 43<232.5 259 232.5 275.5> -94 152<270.5 277.5> 660 81<390 464.5>
VStem: 92 79<200.5 304.5 198.5 306.5> 296 64<-132 -110>
LayerCount: 2
Fore
SplineSet
302 -23 m 1
 288 -56 l 1
 299 -54 302 -54 305 -54 c 0
 336 -54 360 -77 360 -106 c 0
 360 -169 310 -214 241 -214 c 0
 209 -214 186 -206 144 -180 c 1
 167 -142 l 1
 201 -164 221 -171 244 -171 c 0
 274 -171 296 -148 296 -116 c 0
 296 -104 284 -94 271 -94 c 0
 266 -94 266 -94 254 -97 c 2
 248 -98 l 1
 238 -92 l 1
 269 -21 l 1
 212 -11 187 2 157 38 c 1
 115 86 92 159 92 242 c 0
 92 371 135 513 203 608 c 0
 266 697 343 741 437 741 c 0
 516 741 576 702 608 628 c 0
 622 596 629 559 632 503 c 1
 553 503 l 1
 546 611 506 660 423 660 c 0
 345 660 285 615 234 520 c 0
 194 444 171 350 171 259 c 0
 171 138 228 58 313 58 c 0
 379 58 442 97 477 159 c 0
 490 183 501 208 523 266 c 1
 603 266 l 1
 537 67 445 -21 302 -23 c 1
EndSplineSet
EndChar

StartChar: Eth
Encoding: 208 208 37
Width: 592
Flags: MW
HStem: 0 82<164 304> 341 67<87 132 76 144 221 346 87 209> 647 82<263 403 263 263>
VStem: 543 79<434.5 523.5 422.5 533.5>
LayerCount: 2
Fore
SplineSet
132 341 m 1
 76 341 l 1
 87 408 l 1
 144 408 l 1
 200 729 l 1
 431 729 l 2
 488 729 533 709 565 671 c 0
 599 630 622 558 622 489 c 0
 622 356 582 213 522 127 c 0
 462 42 391 0 304 0 c 2
 73 0 l 1
 132 341 l 1
209 341 m 1
 164 82 l 1
 305 82 l 2
 382 82 446 127 488 211 c 0
 520 276 543 388 543 481 c 0
 543 586 491 647 403 647 c 2
 263 647 l 1
 221 408 l 1
 358 408 l 1
 346 341 l 1
 209 341 l 1
EndSplineSet
EndChar

StartChar: Edieresis
Encoding: 203 203 38
Width: 547
Flags: MW
HStem: 0 82<165 503> 332 82<209 548 223 533> 647 82<264 602 264 264> 811 103<329 396 311 414 329 443 461 528>
LayerCount: 2
Fore
SplineSet
414 914 m 1
 396 811 l 1
 311 811 l 1
 329 914 l 1
 414 914 l 1
546 914 m 1
 528 811 l 1
 443 811 l 1
 461 914 l 1
 546 914 l 1
209 332 m 1
 165 82 l 1
 517 82 l 1
 503 0 l 1
 74 0 l 1
 201 729 l 1
 616 729 l 1
 602 647 l 1
 264 647 l 1
 223 414 l 1
 548 414 l 1
 533 332 l 1
 209 332 l 1
EndSplineSet
EndChar

StartChar: Eacute
Encoding: 201 201 39
Width: 547
Flags: MW
HStem: 0 82<165 503> 332 82<209 548 223 533> 647 82<264 602 264 264>
LayerCount: 2
Fore
SplineSet
477 939 m 1
 569 939 l 1
 423 791 l 1
 372 791 l 1
 477 939 l 1
209 332 m 1
 165 82 l 1
 517 82 l 1
 503 0 l 1
 74 0 l 1
 201 729 l 1
 616 729 l 1
 602 647 l 1
 264 647 l 1
 223 414 l 1
 548 414 l 1
 533 332 l 1
 209 332 l 1
EndSplineSet
EndChar

StartChar: Egrave
Encoding: 200 200 40
Width: 547
Flags: MW
HStem: 0 82<165 503> 332 82<209 548 223 533> 647 82<264 602 264 264>
LayerCount: 2
Fore
SplineSet
407 939 m 1
 465 791 l 1
 421 791 l 1
 319 939 l 1
 407 939 l 1
209 332 m 1
 165 82 l 1
 517 82 l 1
 503 0 l 1
 74 0 l 1
 201 729 l 1
 616 729 l 1
 602 647 l 1
 264 647 l 1
 223 414 l 1
 548 414 l 1
 533 332 l 1
 209 332 l 1
EndSplineSet
EndChar

StartChar: Ecircumflex
Encoding: 202 202 41
Width: 547
Flags: MW
HStem: 0 82<165 503> 332 82<209 548 223 533> 647 82<264 602 264 264>
LayerCount: 2
Fore
SplineSet
406 940 m 1
 484 940 l 1
 537 790 l 1
 485 790 l 1
 439 889 l 1
 354 790 l 1
 301 790 l 1
 406 940 l 1
209 332 m 1
 165 82 l 1
 517 82 l 1
 503 0 l 1
 74 0 l 1
 201 729 l 1
 616 729 l 1
 602 647 l 1
 264 647 l 1
 223 414 l 1
 548 414 l 1
 533 332 l 1
 209 332 l 1
EndSplineSet
EndChar

StartChar: Idieresis
Encoding: 207 207 42
Width: 228
Flags: MW
HStem: 0 20 709 20<209 286 286 286> 804 103<166 233 148 251 166 280 298 365>
LayerCount: 2
Fore
SplineSet
286 729 m 1
 159 0 l 1
 82 0 l 1
 209 729 l 1
 286 729 l 1
251 907 m 1
 233 804 l 1
 148 804 l 1
 166 907 l 1
 251 907 l 1
383 907 m 1
 365 804 l 1
 280 804 l 1
 298 907 l 1
 383 907 l 1
EndSplineSet
EndChar

StartChar: Iacute
Encoding: 205 205 43
Width: 228
Flags: MW
HStem: 0 20 709 20<209 286 286 286>
LayerCount: 2
Fore
SplineSet
286 729 m 1
 159 0 l 1
 82 0 l 1
 209 729 l 1
 286 729 l 1
301 939 m 1
 393 939 l 1
 245 791 l 1
 196 791 l 1
 301 939 l 1
EndSplineSet
EndChar

StartChar: Igrave
Encoding: 204 204 44
Width: 228
Flags: MW
HStem: 0 20 709 20<209 286 286 286>
LayerCount: 2
Fore
SplineSet
286 729 m 1
 159 0 l 1
 82 0 l 1
 209 729 l 1
 286 729 l 1
251 939 m 1
 310 791 l 1
 266 791 l 1
 164 939 l 1
 251 939 l 1
EndSplineSet
EndChar

StartChar: Icircumflex
Encoding: 206 206 45
Width: 228
Flags: MW
HStem: 0 20 709 20<209 286 286 286>
LayerCount: 2
Fore
SplineSet
286 729 m 1
 159 0 l 1
 82 0 l 1
 209 729 l 1
 286 729 l 1
242 940 m 1
 320 940 l 1
 372 790 l 1
 321 790 l 1
 275 889 l 1
 189 790 l 1
 137 790 l 1
 242 940 l 1
EndSplineSet
EndChar

StartChar: Lslash
Encoding: 321 321 46
Width: 456
Flags: MW
HStem: 0 82<174 453> 709 20<209 287 287 287>
LayerCount: 2
Fore
SplineSet
214 315 m 1
 174 82 l 1
 468 82 l 1
 453 0 l 1
 82 0 l 1
 130 276 l 1
 62 225 l 1
 76 304 l 1
 144 355 l 1
 209 729 l 1
 287 729 l 1
 228 394 l 1
 389 512 l 1
 375 433 l 1
 214 315 l 1
EndSplineSet
EndChar

StartChar: Ntilde
Encoding: 209 209 47
Width: 592
Flags: W
HStem: 0 20 709 20<189 274 274 274 583 656 656 656> 811 70<506 517.5 506 522> 843 70<388 399>
LayerCount: 2
Fore
SplineSet
656 729 m 1xe0
 529 0 l 1
 443 0 l 1
 238 591 l 1
 135 0 l 1
 62 0 l 1
 189 729 l 1
 274 729 l 1
 479 131 l 1
 583 729 l 1
 656 729 l 1xe0
548 918 m 1
 592 918 l 1
 575 854 540 811 504 811 c 0x20
 487 811 471 816 419 838 c 0
 411 841 402 843 396 843 c 0
 380 843 372 837 362 819 c 1
 356 810 l 1
 312 810 l 1
 323 847 329 864 340 879 c 0
 354 900 377 913 398 913 c 0x10
 413 913 425 909 457 896 c 0
 477 888 502 881 510 881 c 0
 525 881 534 890 548 918 c 1
EndSplineSet
EndChar

StartChar: Odieresis
Encoding: 214 214 48
Width: 638
Flags: MW
HStem: -23 81<304.5 358.5> 660 81<395 470.5 395 483> 811 103<366 432 348 451 366 480 498 564>
VStem: 85 79<241 317 241 329.5> 600 79<402 511 385 513>
LayerCount: 2
Fore
SplineSet
451 914 m 1
 432 811 l 1
 348 811 l 1
 366 914 l 1
 451 914 l 1
583 914 m 1
 564 811 l 1
 480 811 l 1
 498 914 l 1
 583 914 l 1
440 741 m 0
 501 741 556 722 596 689 c 0
 647 646 679 558 679 464 c 0
 679 306 618 148 520 54 c 0
 469 5 397 -23 320 -23 c 0
 250 -23 184 6 145 54 c 0
 106 102 85 176 85 264 c 0
 85 395 131 530 208 622 c 0
 274 702 350 741 440 741 c 0
430 660 m 0
 350 660 278 612 229 526 c 0
 188 454 164 362 164 272 c 0
 164 210 174 168 197 130 c 0
 224 87 278 58 331 58 c 0
 413 58 485 105 535 192 c 0
 576 263 600 358 600 446 c 0
 600 580 536 660 430 660 c 0
EndSplineSet
EndChar

StartChar: Oacute
Encoding: 211 211 49
Width: 638
Flags: MW
HStem: -23 81<304.5 358.5> 660 81<395 470.5 395 483>
VStem: 85 79<241 317 241 329.5> 600 79<402 511 385 513>
LayerCount: 2
Fore
SplineSet
509 939 m 1
 601 939 l 1
 453 791 l 1
 404 791 l 1
 509 939 l 1
440 741 m 0
 501 741 556 722 596 689 c 0
 647 646 679 558 679 464 c 0
 679 306 618 148 520 54 c 0
 469 5 397 -23 320 -23 c 0
 250 -23 184 6 145 54 c 0
 106 102 85 176 85 264 c 0
 85 395 131 530 208 622 c 0
 274 702 350 741 440 741 c 0
430 660 m 0
 350 660 278 612 229 526 c 0
 188 454 164 362 164 272 c 0
 164 210 174 168 197 130 c 0
 224 87 278 58 331 58 c 0
 413 58 485 105 535 192 c 0
 576 263 600 358 600 446 c 0
 600 580 536 660 430 660 c 0
EndSplineSet
EndChar

StartChar: Ograve
Encoding: 210 210 50
Width: 638
Flags: MW
HStem: -23 81<304.5 358.5> 660 81<395 470.5 395 483>
VStem: 85 79<241 317 241 329.5> 600 79<402 511 385 513>
LayerCount: 2
Fore
SplineSet
441 939 m 1
 500 791 l 1
 456 791 l 1
 354 939 l 1
 441 939 l 1
440 741 m 0
 501 741 556 722 596 689 c 0
 647 646 679 558 679 464 c 0
 679 306 618 148 520 54 c 0
 469 5 397 -23 320 -23 c 0
 250 -23 184 6 145 54 c 0
 106 102 85 176 85 264 c 0
 85 395 131 530 208 622 c 0
 274 702 350 741 440 741 c 0
430 660 m 0
 350 660 278 612 229 526 c 0
 188 454 164 362 164 272 c 0
 164 210 174 168 197 130 c 0
 224 87 278 58 331 58 c 0
 413 58 485 105 535 192 c 0
 576 263 600 358 600 446 c 0
 600 580 536 660 430 660 c 0
EndSplineSet
EndChar

StartChar: Ocircumflex
Encoding: 212 212 51
Width: 638
Flags: MW
HStem: -23 81<304.5 358.5> 660 81<395 470.5 395 483>
VStem: 85 79<241 317 241 329.5> 600 79<402 511 385 513>
LayerCount: 2
Fore
SplineSet
441 940 m 1
 518 940 l 1
 571 790 l 1
 519 790 l 1
 473 889 l 1
 388 790 l 1
 336 790 l 1
 441 940 l 1
440 741 m 0
 501 741 556 722 596 689 c 0
 647 646 679 558 679 464 c 0
 679 306 618 148 520 54 c 0
 469 5 397 -23 320 -23 c 0
 250 -23 184 6 145 54 c 0
 106 102 85 176 85 264 c 0
 85 395 131 530 208 622 c 0
 274 702 350 741 440 741 c 0
430 660 m 0
 350 660 278 612 229 526 c 0
 188 454 164 362 164 272 c 0
 164 210 174 168 197 130 c 0
 224 87 278 58 331 58 c 0
 413 58 485 105 535 192 c 0
 576 263 600 358 600 446 c 0
 600 580 536 660 430 660 c 0
EndSplineSet
EndChar

StartChar: Otilde
Encoding: 213 213 52
Width: 638
Flags: W
HStem: -23 81<304.5 358.5> 660 81<395 470.5 395 483> 811 70<526 537.5 526 541.5> 843 70<408 419>
VStem: 85 79<241 317 241 329.5> 600 79<402 511 385 513>
LayerCount: 2
Fore
SplineSet
440 741 m 0xec
 501 741 556 722 596 689 c 0
 647 646 679 558 679 464 c 0
 679 306 618 148 520 54 c 0
 469 5 397 -23 320 -23 c 0
 250 -23 184 6 145 54 c 0
 106 102 85 176 85 264 c 0
 85 395 131 530 208 622 c 0
 274 702 350 741 440 741 c 0xec
430 660 m 0
 350 660 278 612 229 526 c 0
 188 454 164 362 164 272 c 0
 164 210 174 168 197 130 c 0
 224 87 278 58 331 58 c 0
 413 58 485 105 535 192 c 0
 576 263 600 358 600 446 c 0
 600 580 536 660 430 660 c 0
568 918 m 1
 612 918 l 1
 596 855 559 811 524 811 c 0x2c
 507 811 490 816 439 838 c 0
 431 841 422 843 416 843 c 0
 400 843 391 837 381 819 c 2
 376 810 l 1
 332 810 l 1
 343 848 350 864 360 879 c 0
 374 900 397 913 418 913 c 0x1c
 433 913 445 910 477 896 c 0
 497 888 522 881 530 881 c 0
 545 881 554 890 568 918 c 1
EndSplineSet
EndChar

StartChar: Scaron
Encoding: 352 352 53
Width: 547
Flags: W
HStem: -23 81<237 312> 660 81<358.5 408.5>
VStem: 73 75<146 180.5> 146 79<495.5 518.5> 470 79<208.5 233> 511 75<549.5 592>
LayerCount: 2
Fore
SplineSet
448 791 m 1xd4
 371 791 l 1
 318 939 l 1
 370 939 l 1
 416 841 l 1
 501 939 l 1
 554 939 l 1
 448 791 l 1xd4
579 515 m 1
 507 515 l 1
 508 528 l 1
 510 539 511 548 511 551 c 0
 511 576 498 612 484 629 c 0
 467 649 432 660 385 660 c 0
 290 660 225 602 225 518 c 0xd4
 225 473 243 454 308 432 c 2
 448 383 l 2
 487 369 511 349 529 315 c 0
 541 291 549 261 549 237 c 0
 549 180 517 102 473 56 c 0
 425 5 354 -23 270 -23 c 0
 146 -23 73 48 73 170 c 0
 73 191 75 207 80 232 c 1
 152 232 l 1
 149 212 148 202 148 191 c 0
 148 101 191 58 283 58 c 0
 352 58 401 77 434 118 c 1
 456 143 470 180 470 209 c 0xe8
 470 257 443 286 377 309 c 2
 237 357 l 2
 182 376 146 429 146 492 c 0
 146 545 173 618 208 660 c 0
 253 714 317 741 400 741 c 0
 464 741 509 724 541 689 c 0
 569 658 586 613 586 571 c 0
 586 559 584 546 579 515 c 1
EndSplineSet
EndChar

StartChar: Udieresis
Encoding: 220 220 54
Width: 592
Flags: MW
HStem: -23 81<272.5 359 272.5 367> 811 103<351 417 333 436 351 465 483 549>
VStem: 102 79<139 164>
LayerCount: 2
Fore
SplineSet
436 914 m 1
 417 811 l 1
 333 811 l 1
 351 914 l 1
 436 914 l 1
568 914 m 1
 549 811 l 1
 465 811 l 1
 483 914 l 1
 568 914 l 1
579 729 m 1
 656 729 l 1
 567 217 l 2
 542 71 436 -23 298 -23 c 0
 235 -23 180 -2 147 35 c 0
 120 65 102 114 102 156 c 0
 102 172 107 215 113 251 c 2
 197 729 l 1
 274 729 l 1
 185 217 l 2
 182 202 181 190 181 174 c 0
 181 104 233 58 312 58 c 0
 406 58 473 118 490 217 c 2
 579 729 l 1
EndSplineSet
EndChar

StartChar: Uacute
Encoding: 218 218 55
Width: 592
Flags: MW
HStem: -23 81<272.5 359 272.5 367>
VStem: 102 79<139 164>
LayerCount: 2
Fore
SplineSet
485 939 m 1
 577 939 l 1
 429 791 l 1
 380 791 l 1
 485 939 l 1
579 729 m 1
 656 729 l 1
 567 217 l 2
 542 71 436 -23 298 -23 c 0
 235 -23 180 -2 147 35 c 0
 120 65 102 114 102 156 c 0
 102 172 107 215 113 251 c 2
 197 729 l 1
 274 729 l 1
 185 217 l 2
 182 202 181 190 181 174 c 0
 181 104 233 58 312 58 c 0
 406 58 473 118 490 217 c 2
 579 729 l 1
EndSplineSet
EndChar

StartChar: Ugrave
Encoding: 217 217 56
Width: 592
Flags: MW
HStem: -23 81<272.5 359 272.5 367>
VStem: 102 79<139 164>
LayerCount: 2
Fore
SplineSet
422 939 m 1
 481 791 l 1
 437 791 l 1
 335 939 l 1
 422 939 l 1
579 729 m 1
 656 729 l 1
 567 217 l 2
 542 71 436 -23 298 -23 c 0
 235 -23 180 -2 147 35 c 0
 120 65 102 114 102 156 c 0
 102 172 107 215 113 251 c 2
 197 729 l 1
 274 729 l 1
 185 217 l 2
 182 202 181 190 181 174 c 0
 181 104 233 58 312 58 c 0
 406 58 473 118 490 217 c 2
 579 729 l 1
EndSplineSet
EndChar

StartChar: Ucircumflex
Encoding: 219 219 57
Width: 592
Flags: MW
HStem: -23 81<272.5 359 272.5 367>
VStem: 102 79<139 164>
LayerCount: 2
Fore
SplineSet
424 940 m 1
 501 940 l 1
 555 790 l 1
 502 790 l 1
 456 889 l 1
 372 790 l 1
 319 790 l 1
 424 940 l 1
579 729 m 1
 656 729 l 1
 567 217 l 2
 542 71 436 -23 298 -23 c 0
 235 -23 180 -2 147 35 c 0
 120 65 102 114 102 156 c 0
 102 172 107 215 113 251 c 2
 197 729 l 1
 274 729 l 1
 185 217 l 2
 182 202 181 190 181 174 c 0
 181 104 233 58 312 58 c 0
 406 58 473 118 490 217 c 2
 579 729 l 1
EndSplineSet
EndChar

StartChar: Yacute
Encoding: 221 221 58
Width: 547
Flags: MW
HStem: 0 20 709 20<138 230 230 230 578 669 669 669>
LayerCount: 2
Fore
SplineSet
463 939 m 1
 555 939 l 1
 407 791 l 1
 358 791 l 1
 463 939 l 1
367 286 m 1
 318 0 l 1
 240 0 l 1
 290 286 l 1
 138 729 l 1
 230 729 l 1
 341 372 l 1
 578 729 l 1
 669 729 l 1
 367 286 l 1
EndSplineSet
EndChar

StartChar: Zcaron
Encoding: 381 381 59
Width: 501
Flags: MW
HStem: 0 82<134 479> 647 82<174 493 160 604>
LayerCount: 2
Fore
SplineSet
604 729 m 1
 590 645 l 1
 134 82 l 1
 493 82 l 1
 479 0 l 1
 23 0 l 1
 38 84 l 1
 493 647 l 1
 160 647 l 1
 174 729 l 1
 604 729 l 1
436 791 m 1
 358 791 l 1
 305 939 l 1
 357 939 l 1
 403 841 l 1
 488 939 l 1
 541 939 l 1
 436 791 l 1
EndSplineSet
EndChar

StartChar: Thorn
Encoding: 222 222 60
Width: 547
Flags: MW
HStem: 0 20 191 82<185 359 200 359 359 373> 529 82<259 404 244 429> 709 20<202 279 279 279>
VStem: 502 79<414.5 464>
LayerCount: 2
Fore
SplineSet
185 191 m 1
 152 0 l 1
 75 0 l 1
 202 729 l 1
 279 729 l 1
 259 611 l 1
 429 611 l 2
 530 611 581 556 581 450 c 0
 581 369 552 295 500 243 c 0
 464 207 424 191 373 191 c 2
 185 191 l 1
200 273 m 1
 359 273 l 2
 413 273 448 293 476 337 c 0
 494 367 502 397 502 432 c 0
 502 496 468 529 404 529 c 2
 244 529 l 1
 200 273 l 1
EndSplineSet
EndChar

StartChar: Ydieresis
Encoding: 376 376 61
Width: 547
Flags: MW
HStem: 0 20 709 20<138 230 230 230 578 669 669 669> 811 103<328 394 310 413 328 442 460 526>
LayerCount: 2
Fore
SplineSet
368 286 m 1
 318 0 l 1
 240 0 l 1
 291 286 l 1
 138 729 l 1
 230 729 l 1
 341 372 l 1
 578 729 l 1
 669 729 l 1
 368 286 l 1
413 914 m 1
 394 811 l 1
 310 811 l 1
 328 914 l 1
 413 914 l 1
545 914 m 1
 526 811 l 1
 442 811 l 1
 460 914 l 1
 545 914 l 1
EndSplineSet
EndChar

StartChar: a
Encoding: 97 97 62
Width: 456
Flags: MW
HStem: -23 72<174.5 185.5> 462 77<286.5 330>
VStem: 53 72<94.5 132 94.5 133.5> 391 74<394.5 461>
LayerCount: 2
Fore
SplineSet
452 51 m 1
 442 -14 l 1
 430 -17 l 1
 411 -23 408 -23 398 -23 c 0
 359 -23 336 1 336 43 c 2
 336 47 l 1
 336 54 l 1
 301 17 289 8 261 -4 c 0
 232 -16 200 -23 171 -23 c 0
 98 -23 53 25 53 104 c 0
 53 163 77 215 120 249 c 0
 159 280 196 290 305 302 c 0
 365 309 380 320 388 361 c 1
 390 379 l 2
 391 384 391 390 391 399 c 0
 391 435 355 462 305 462 c 0
 268 462 234 447 215 423 c 0
 205 409 199 396 192 369 c 1
 123 369 l 1
 139 480 208 539 323 539 c 0
 409 539 465 495 465 427 c 0
 465 414 465 414 461 389 c 2
 408 88 l 2
 407 84 407 80 407 77 c 0
 407 59 418 49 438 49 c 0
 442 49 445 49 452 51 c 1
353 164 m 2
 370 258 l 1
 333 243 327 242 249 229 c 0
 209 222 184 213 165 199 c 0
 140 180 125 148 125 116 c 0
 125 73 151 49 198 49 c 0
 270 49 342 102 353 164 c 2
EndSplineSet
EndChar

StartChar: b
Encoding: 98 98 63
Width: 456
Flags: MW
HStem: -23 77<215 268.5> 462 77<320 344> 709 20<171 240 240 240>
VStem: 410 72<297 367>
LayerCount: 2
Fore
SplineSet
171 729 m 1
 240 729 l 1
 192 454 l 1
 218 487 228 498 242 509 c 0
 266 527 303 539 337 539 c 0
 420 539 482 455 482 343 c 0
 482 241 446 128 391 55 c 0
 355 8 296 -23 241 -23 c 0
 180 -23 146 6 119 78 c 1
 106 0 l 1
 44 0 l 1
 171 729 l 1
314 462 m 0
 263 462 219 425 187 356 c 0
 165 310 151 241 151 183 c 0
 151 104 187 54 243 54 c 0
 297 54 341 89 374 160 c 0
 396 207 410 270 410 324 c 0
 410 410 374 462 314 462 c 0
EndSplineSet
EndChar

StartChar: c
Encoding: 99 99 64
Width: 410
Flags: MW
HStem: -23 77<198 249.5> 462 77<275.5 326.5>
VStem: 62 72<146 211 141.5 218> 383 71<348 409 391 399>
LayerCount: 2
Fore
SplineSet
451 348 m 1
 383 348 l 1
 383 370 l 2
 383 428 353 462 300 462 c 0
 248 462 207 431 176 367 c 0
 151 317 134 242 134 180 c 0
 134 103 170 54 226 54 c 0
 286 54 331 98 356 180 c 1
 424 180 l 1
 411 122 397 87 374 56 c 0
 337 6 281 -23 218 -23 c 0
 162 -23 126 -4 98 39 c 0
 75 75 62 122 62 170 c 0
 62 266 91 376 132 438 c 1
 177 504 239 539 312 539 c 0
 359 539 393 524 418 492 c 0
 440 464 454 425 454 393 c 0
 454 389 453 378 452 363 c 2
 451 348 l 1
EndSplineSet
EndChar

StartChar: d
Encoding: 100 100 65
Width: 456
Flags: MW
HStem: -23 77<198 232.5> 462 77<264 321.5> 709 20<464 533 533 533>
VStem: 60 72<147 217 147 275.5>
LayerCount: 2
Fore
SplineSet
533 729 m 1
 406 0 l 1
 340 0 l 1
 353 76 l 1
 330 19 266 -23 199 -23 c 0
 115 -23 60 53 60 169 c 0
 60 382 161 539 298 539 c 0
 356 539 390 513 415 448 c 1
 464 729 l 1
 533 729 l 1
291 462 m 0
 237 462 197 428 166 356 c 0
 145 307 132 244 132 190 c 0
 132 104 168 54 228 54 c 0
 279 54 320 89 353 160 c 0
 376 211 388 269 388 328 c 0
 388 413 352 462 291 462 c 0
EndSplineSet
EndChar

StartChar: e
Encoding: 101 101 66
Width: 456
Flags: MW
HStem: -23 77<210 270 210 281> 234 72<160 401 160 462 145 401> 462 77<284.5 337>
VStem: 69 72<146.5 200 146 215> 404 72<354.5 376>
LayerCount: 2
Fore
SplineSet
462 234 m 1
 145 234 l 1
 142 219 141 210 141 190 c 0
 141 102 177 54 243 54 c 0
 297 54 341 90 371 159 c 1
 440 159 l 1
 413 50 330 -23 232 -23 c 0
 183 -23 145 -5 116 32 c 0
 86 69 69 121 69 172 c 0
 69 258 101 373 142 437 c 0
 184 502 249 539 320 539 c 0
 408 539 476 464 476 368 c 0
 476 341 472 299 464 251 c 1
 462 234 l 1
160 306 m 1
 401 306 l 1
 404 328 404 332 404 339 c 0
 404 413 366 462 308 462 c 0
 242 462 182 399 160 306 c 1
EndSplineSet
EndChar

StartChar: f
Encoding: 102 102 67
Width: 228
Flags: MW
HStem: 0 20 457 67<107 153 95 164 233 292 107 222> 660 72<285.5 307>
LayerCount: 2
Fore
SplineSet
303 524 m 1
 292 457 l 1
 222 457 l 1
 142 0 l 1
 73 0 l 1
 153 457 l 1
 95 457 l 1
 107 524 l 1
 164 524 l 1
 180 613 l 2
 193 687 238 732 302 732 c 0
 315 732 324 731 339 727 c 1
 327 658 l 1
 315 660 311 660 303 660 c 0
 268 660 254 644 245 593 c 2
 233 524 l 1
 303 524 l 1
EndSplineSet
EndChar

StartChar: g
Encoding: 103 103 68
Width: 456
Flags: MW
HStem: -218 72<157 204> -17 72<195 228.5> 519 20<271.5 329>
VStem: 60 72<144.5 211.5 144.5 214.5>
LayerCount: 2
Fore
SplineSet
430 524 m 1
 493 524 l 1
 416 85 l 2
 394 -42 373 -101 331 -151 c 0
 296 -193 237 -218 171 -218 c 0
 83 -218 26 -168 26 -91 c 0
 26 -85 26 -84 28 -60 c 1
 96 -60 l 1
 96 -68 l 1
 96 -74 l 2
 96 -119 129 -146 185 -146 c 0
 273 -146 316 -93 340 44 c 1
 343 63 l 1
 302 10 254 -17 203 -17 c 0
 119 -17 60 59 60 167 c 0
 60 262 93 380 139 444 c 1
 180 504 240 539 303 539 c 0
 355 539 393 508 416 446 c 1
 430 524 l 1
298 462 m 0
 248 465 197 423 168 355 c 0
 146 305 132 239 132 184 c 0
 132 105 167 55 223 55 c 0
 273 55 321 94 349 159 c 0
 371 208 384 278 384 340 c 0
 384 415 353 459 298 462 c 0
EndSplineSet
EndChar

StartChar: h
Encoding: 104 104 69
Width: 456
Flags: MW
HStem: 0 20 467 72<329 348> 709 20<184 253 253 253>
VStem: 397 73<406.5 408>
LayerCount: 2
Fore
SplineSet
184 729 m 1
 253 729 l 1
 206 459 l 1
 258 518 298 539 360 539 c 0
 429 539 470 493 470 414 c 0
 470 399 469 389 467 376 c 2
 401 0 l 1
 333 0 l 1
 392 343 l 2
 397 368 397 368 397 382 c 0
 397 434 369 467 327 467 c 0
 253 467 195 399 176 289 c 2
 126 0 l 1
 57 0 l 1
 184 729 l 1
EndSplineSet
EndChar

StartChar: i
Encoding: 105 105 70
Width: 182
Flags: MW
HStem: 0 20 626 103<181 232 163 250>
LayerCount: 2
Fore
SplineSet
214 524 m 1
 123 0 l 1
 54 0 l 1
 145 524 l 1
 214 524 l 1
250 729 m 1
 232 626 l 1
 163 626 l 1
 181 729 l 1
 250 729 l 1
EndSplineSet
EndChar

StartChar: j
Encoding: 106 106 71
Width: 182
Flags: MW
HStem: -218 72<-23 1 -23 10> 626 103<184 235 166 253>
LayerCount: 2
Fore
SplineSet
148 524 m 1
 217 524 l 1
 107 -109 l 2
 93 -191 57 -218 -37 -218 c 0
 -46 -218 -48 -218 -53 -215 c 1
 -41 -144 l 1
 -30 -146 -26 -146 -20 -146 c 0
 22 -146 34 -133 44 -76 c 2
 148 524 l 1
253 729 m 1
 235 626 l 1
 166 626 l 1
 184 729 l 1
 253 729 l 1
EndSplineSet
EndChar

StartChar: k
Encoding: 107 107 72
Width: 410
Flags: MW
HStem: 0 20 709 20<175 244 244 244>
LayerCount: 2
Fore
SplineSet
244 729 m 1
 170 306 l 1
 391 524 l 1
 479 524 l 1
 297 343 l 1
 412 0 l 1
 333 0 l 1
 240 291 l 1
 152 203 l 1
 117 0 l 1
 48 0 l 1
 175 729 l 1
 244 729 l 1
EndSplineSet
EndChar

StartChar: l
Encoding: 108 108 73
Width: 182
Flags: MW
HStem: 0 20 709 20<183 252 252 252>
LayerCount: 2
Fore
SplineSet
252 729 m 1
 125 0 l 1
 56 0 l 1
 183 729 l 1
 252 729 l 1
EndSplineSet
EndChar

StartChar: m
Encoding: 109 109 74
Width: 683
Flags: W
HStem: 0 20 467 72<318 329 568 583> 504 20<149 212 212 212>
VStem: 627 72<383.5 441.5>
LayerCount: 2
Fore
SplineSet
149 524 m 1xb0
 212 524 l 1x30
 200 459 l 1
 254 519 290 539 346 539 c 0
 401 539 433 512 446 456 c 1
 495 513 541 539 595 539 c 0
 635 539 655 529 675 501 c 0
 691 478 699 454 699 429 c 0
 699 420 696 384 694 373 c 2
 629 0 l 1
 560 0 l 1
 619 341 l 1
 627 377 627 377 627 390 c 0
 627 437 602 467 564 467 c 0
 505 467 449 407 435 329 c 2
 378 0 l 1
 309 0 l 1
 372 361 l 2
 374 373 375 386 375 397 c 0
 375 440 349 467 309 467 c 0xd0
 253 467 197 405 184 329 c 2
 127 0 l 1
 58 0 l 1
 149 524 l 1xb0
EndSplineSet
EndChar

StartChar: n
Encoding: 110 110 75
Width: 456
Flags: W
HStem: 0 20 467 72<327.5 347> 504 20<148 211 211 211>
VStem: 398 72<406 409.5>
LayerCount: 2
Fore
SplineSet
148 524 m 1xb0
 211 524 l 1x30
 199 459 l 1
 242 512 296 539 359 539 c 0
 427 539 470 490 470 413 c 0
 470 399 469 388 467 376 c 2
 401 0 l 1
 333 0 l 1
 393 349 l 2
 397 367 398 379 398 386 c 0
 398 433 368 467 326 467 c 0xd0
 253 467 195 399 176 289 c 2
 126 0 l 1
 57 0 l 1
 148 524 l 1xb0
EndSplineSet
EndChar

StartChar: o
Encoding: 111 111 76
Width: 456
Flags: MW
HStem: -23 77<203.5 259.5> 462 77<278 335.5>
VStem: 66 72<144 208.5> 401 72<307.5 373>
LayerCount: 2
Fore
SplineSet
315 539 m 0
 410 539 473 465 473 352 c 0
 473 263 444 151 404 87 c 0
 358 13 298 -23 221 -23 c 0
 129 -23 66 53 66 164 c 0
 66 253 95 365 133 429 c 0
 176 500 241 539 315 539 c 0
306 462 m 0
 249 462 202 424 172 352 c 0
 151 304 138 239 138 185 c 0
 138 103 174 54 233 54 c 0
 290 54 336 92 367 164 c 0
 387 212 401 279 401 333 c 0
 401 413 365 462 306 462 c 0
EndSplineSet
EndChar

StartChar: p
Encoding: 112 112 77
Width: 456
Flags: MW
HStem: -213 20 -23 77<218 272> 462 77<305.5 341.5>
VStem: 409 72<298.5 367>
LayerCount: 2
Fore
SplineSet
6 -213 m 1
 134 524 l 1
 201 524 l 1
 186 440 l 1
 208 495 274 539 337 539 c 0
 426 539 481 464 481 346 c 0
 481 243 452 137 405 70 c 0
 362 10 304 -23 240 -23 c 0
 183 -23 149 4 124 68 c 1
 75 -213 l 1
 6 -213 l 1
311 462 m 0
 259 462 217 427 186 356 c 0
 164 305 150 240 150 184 c 0
 150 104 188 54 248 54 c 0
 302 54 344 89 375 160 c 1
 395 209 409 273 409 324 c 0
 409 410 372 462 311 462 c 0
EndSplineSet
EndChar

StartChar: q
Encoding: 113 113 78
Width: 456
Flags: MW
HStem: -213 20 -23 77<197 219.5> 462 77<272 325.5>
VStem: 58 72<146 213.5 146 224>
LayerCount: 2
Fore
SplineSet
369 -213 m 1
 300 -213 l 1
 348 62 l 1
 320 27 311 18 297 7 c 0
 275 -11 236 -23 203 -23 c 0
 120 -23 58 61 58 172 c 0
 58 276 93 387 149 461 c 0
 185 509 244 539 300 539 c 0
 360 539 402 504 420 438 c 1
 436 524 l 1
 498 524 l 1
 369 -213 l 1
297 462 m 0
 244 462 197 425 166 356 c 0
 145 311 130 241 130 186 c 0
 130 106 168 54 226 54 c 0
 316 54 388 179 388 333 c 0
 388 413 354 462 297 462 c 0
EndSplineSet
EndChar

StartChar: r
Encoding: 114 114 79
Width: 273
Flags: W
HStem: 0 20 504 20<148 210 210 210> 519 20<308 336.5>
LayerCount: 2
Fore
SplineSet
148 524 m 1xc0
 210 524 l 1x40
 196 442 l 1
 248 513 284 539 332 539 c 0x20
 341 539 347 538 358 536 c 1
 343 451 l 1
 253 455 194 393 173 272 c 2
 126 0 l 1
 57 0 l 1
 148 524 l 1xc0
EndSplineSet
EndChar

StartChar: s
Encoding: 115 115 80
Width: 410
Flags: W
HStem: -23 77<186.5 233.5 186.5 264> 462 77<259.5 302.5>
VStem: 50 76<106.5 113> 101 72<354 376.5 354 401> 332 72<141 165> 353 73<378 457 414 420>
LayerCount: 2
Fore
SplineSet
421 378 m 1xd4
 353 378 l 1
 353 400 l 2
 353 440 327 462 278 462 c 0
 241 462 215 451 196 427 c 0
 182 410 173 386 173 367 c 0xd4
 173 341 197 321 243 307 c 2
 305 288 l 2
 377 266 404 235 404 173 c 0
 404 54 325 -23 203 -23 c 0
 107 -23 50 25 50 105 c 0
 50 121 51 132 55 156 c 1
 128 156 l 1
 127 146 126 138 126 131 c 0
 126 82 158 54 215 54 c 0
 252 54 288 68 308 90 c 0
 320 103 332 132 332 150 c 0xe8
 332 180 316 196 275 209 c 2
 214 228 l 2
 129 255 101 283 101 345 c 0
 101 457 182 539 292 539 c 0
 372 539 426 492 426 422 c 0
 426 406 425 398 421 378 c 1xd4
EndSplineSet
EndChar

StartChar: t
Encoding: 116 116 81
Width: 228
Flags: MW
HStem: -23 72<130.5 185> 457 67<101 147 89 159 228 289 101 216>
VStem: 80 70<31.5 76.5>
LayerCount: 2
Fore
SplineSet
301 524 m 1
 289 457 l 1
 216 457 l 1
 152 90 l 2
 151 83 150 77 150 76 c 0
 150 60 163 49 180 49 c 0
 190 49 192 49 219 57 c 1
 207 -16 l 1
 194 -20 170 -23 153 -23 c 0
 108 -23 80 7 80 56 c 0
 80 66 81 77 83 87 c 2
 147 457 l 1
 89 457 l 1
 101 524 l 1
 159 524 l 1
 184 668 l 1
 253 668 l 1
 228 524 l 1
 301 524 l 1
EndSplineSet
EndChar

StartChar: u
Encoding: 117 117 82
Width: 456
Flags: MW
HStem: -23 72<196.5 217> 504 20<145 214 214 214 418 487 487 487>
VStem: 72 75<52 131>
LayerCount: 2
Fore
SplineSet
396 0 m 1
 334 0 l 1
 343 57 l 1
 296 1 249 -23 185 -23 c 0
 115 -23 72 18 72 86 c 0
 72 99 73 110 75 120 c 2
 145 524 l 1
 214 524 l 1
 149 153 l 2
 148 145 147 136 147 126 c 0
 147 78 174 49 219 49 c 0
 290 49 348 119 366 227 c 2
 418 524 l 1
 487 524 l 1
 396 0 l 1
EndSplineSet
EndChar

StartChar: v
Encoding: 118 118 83
Width: 410
Flags: MW
HStem: 0 20 504 20<100 175 175 175 416 490 490 490>
LayerCount: 2
Fore
SplineSet
235 0 m 1
 161 0 l 1
 100 524 l 1
 175 524 l 1
 216 102 l 1
 416 524 l 1
 490 524 l 1
 235 0 l 1
EndSplineSet
EndChar

StartChar: w
Encoding: 119 119 84
Width: 592
Flags: MW
HStem: 0 20 504 20<97 172 172 172 342 428 428 428 598 673 673 673>
LayerCount: 2
Fore
SplineSet
456 0 m 1
 378 0 l 1
 368 418 l 1
 209 0 l 1
 130 0 l 1
 97 524 l 1
 172 524 l 1
 187 116 l 1
 342 524 l 1
 428 524 l 1
 437 116 l 1
 598 524 l 1
 673 524 l 1
 456 0 l 1
EndSplineSet
EndChar

StartChar: x
Encoding: 120 120 85
Width: 410
Flags: MW
HStem: 0 20 504 20<113 189 189 189 399 478 478 478>
LayerCount: 2
Fore
SplineSet
287 267 m 1
 388 0 l 1
 311 0 l 1
 237 200 l 1
 94 0 l 1
 14 0 l 1
 210 267 l 1
 113 524 l 1
 189 524 l 1
 262 332 l 1
 399 524 l 1
 478 524 l 1
 287 267 l 1
EndSplineSet
EndChar

StartChar: y
Encoding: 121 121 86
Width: 410
Flags: MW
HStem: -218 81<51 71.5 51 76.5> 504 20<109 182 182 182 411 484 484 484>
LayerCount: 2
Fore
SplineSet
411 524 m 1
 484 524 l 1
 182 -110 l 2
 147 -185 105 -218 48 -218 c 0
 31 -218 22 -216 7 -208 c 1
 20 -133 l 1
 44 -137 46 -137 56 -137 c 0
 87 -137 100 -127 122 -85 c 2
 164 -4 l 1
 109 524 l 1
 182 524 l 1
 220 117 l 1
 411 524 l 1
EndSplineSet
EndChar

StartChar: z
Encoding: 122 122 87
Width: 410
Flags: MW
HStem: 0 72<120 375> 452 72<135 364 123 456>
LayerCount: 2
Fore
SplineSet
456 524 m 1
 442 449 l 1
 120 72 l 1
 387 72 l 1
 375 0 l 1
 25 0 l 1
 40 74 l 1
 364 452 l 1
 123 452 l 1
 135 524 l 1
 456 524 l 1
EndSplineSet
EndChar

StartChar: ae
Encoding: 230 230 88
Width: 729
Flags: W
HStem: -23 72<170 200.5> -23 77<504 545 504 554.5> 234 72<434 675 434 736 419 675> 462 77<283.5 326.5 567.5 612.5>
VStem: 48 72<94 132 94 134> 678 72<357.5 376.5>
LayerCount: 2
Fore
SplineSet
184 369 m 1x9c
 115 369 l 1
 130 431 140 457 161 481 c 0
 195 518 250 539 317 539 c 0
 370 539 398 529 429 498 c 0
 443 483 445 481 447 474 c 1
 484 514 540 539 595 539 c 0
 680 539 750 463 750 371 c 0
 750 344 746 300 738 251 c 1
 736 234 l 1
 419 234 l 1
 416 216 415 204 415 181 c 2
 415 169 l 1
 415 163 l 2
 415 134 431 98 453 77 c 0
 469 61 490 54 518 54 c 0
 572 54 615 90 645 159 c 1
 714 159 l 1
 688 50 604 -23 505 -23 c 0x7c
 439 -23 396 8 362 79 c 1
 307 14 236 -23 165 -23 c 0
 93 -23 48 26 48 105 c 0
 48 163 72 216 115 249 c 0
 154 279 192 289 297 300 c 0
 357 307 371 318 379 361 c 1
 383 386 l 2
 384 393 385 399 385 405 c 0
 385 441 353 462 300 462 c 0
 235 462 201 435 184 369 c 1x9c
345 164 m 2xbc
 361 257 l 1
 331 244 326 243 244 229 c 0
 202 222 179 213 160 199 c 0
 135 180 120 148 120 116 c 0
 120 72 146 49 194 49 c 0
 263 49 334 104 345 164 c 2xbc
434 306 m 1
 675 306 l 1
 677 323 678 331 678 339 c 0
 678 414 641 462 584 462 c 0
 515 462 460 404 434 306 c 1
EndSplineSet
EndChar

StartChar: oe
Encoding: 339 339 89
Width: 774
Flags: MW
HStem: -23 77<205.5 261.5 205.5 261.5 528.5 587> 234 72<477 718 477 778 462 718> 462 77<278.5 334.5 602 656>
VStem: 70 72<142.5 207.5> 720 72<352 376>
LayerCount: 2
Fore
SplineSet
687 159 m 1
 756 159 l 1
 730 50 647 -23 547 -23 c 0
 491 -23 452 0 417 55 c 0
 410 65 407 72 403 84 c 1
 362 16 297 -23 226 -23 c 0
 175 -23 138 -6 111 31 c 1
 85 64 70 116 70 165 c 0
 70 250 98 361 137 428 c 0
 178 500 241 539 316 539 c 0
 386 539 434 504 458 436 c 1
 492 495 568 539 636 539 c 0
 725 539 792 465 792 368 c 0
 792 336 788 301 778 234 c 1
 462 234 l 1
 457 208 456 195 456 176 c 0
 456 102 497 54 560 54 c 0
 614 54 658 89 687 159 c 1
305 462 m 0
 214 462 142 338 142 182 c 0
 142 103 177 54 234 54 c 0
 289 54 337 94 367 164 c 0
 387 210 400 279 400 333 c 0
 400 413 364 462 305 462 c 0
477 306 m 1
 718 306 l 1
 720 319 720 324 720 337 c 0
 720 415 685 462 627 462 c 0
 559 462 499 400 477 306 c 1
EndSplineSet
EndChar

StartChar: oslash
Encoding: 248 248 90
Width: 501
Flags: W
HStem: -23 77<219 261.5> 462 77<277.5 322> 521 20<503 503>
VStem: 67 72<171.5 209> 402 72<309 328.5>
LayerCount: 2
Fore
SplineSet
16 -2 m 1xb8
 84 74 l 1
 72 106 67 132 67 164 c 0
 67 254 95 363 135 429 c 0
 178 501 240 539 315 539 c 0xd8
 373 539 414 517 441 472 c 1
 503 541 l 1
 524 511 l 1
 458 437 l 1
 469 407 474 384 474 354 c 0
 474 264 445 151 405 87 c 0
 360 15 298 -23 225 -23 c 0
 169 -23 126 -1 101 41 c 1
 37 -30 l 1
 16 -2 l 1xb8
144 141 m 1
 386 410 l 1
 371 444 341 462 303 462 c 0
 249 462 203 423 173 352 c 0
 151 302 139 240 139 180 c 0
 139 163 140 156 144 141 c 1
397 370 m 1
 156 102 l 1
 172 72 201 54 237 54 c 0
 291 54 339 94 368 164 c 0
 385 205 402 285 402 323 c 0
 402 334 401 345 397 370 c 1
EndSplineSet
EndChar

StartChar: germandbls
Encoding: 223 223 91
Width: 501
Flags: W
HStem: -23 81<279.5 305.5> 652 77<363.5 408.5>
VStem: 435 72<242.5 284> 465 72<542.5 592>
LayerCount: 2
Fore
SplineSet
308 349 m 1xe0
 322 431 l 1
 403 430 465 489 465 565 c 0
 465 619 434 652 383 652 c 0
 320 652 279 612 266 538 c 2
 172 0 l 1
 103 0 l 1
 197 538 l 2
 208 604 225 639 263 676 c 0
 300 713 339 729 388 729 c 0
 480 729 537 673 537 583 c 0xd0
 537 502 502 438 438 403 c 1
 485 378 507 338 507 278 c 0
 507 207 485 131 449 77 c 0
 403 9 345 -23 266 -23 c 0
 254 -23 250 -22 244 -19 c 1
 258 59 l 1
 275 58 277 58 282 58 c 0
 367 58 435 143 435 250 c 0
 435 318 403 349 334 349 c 2
 325 349 l 1
 308 349 l 1xe0
EndSplineSet
EndChar

StartChar: dotlessi
Encoding: 305 305 92
Width: 228
Flags: MW
HStem: 0 20 507 20<169 238 238 238>
LayerCount: 2
Fore
SplineSet
238 527 m 1
 146 0 l 1
 77 0 l 1
 169 527 l 1
 238 527 l 1
EndSplineSet
EndChar

StartChar: fi
Encoding: 64257 64257 93
Width: 410
Flags: W
HStem: 0 20 457 67<102 148 90 159 228 287 102 217> 626 103<416 466 397 485> 660 72<280.5 302>
LayerCount: 2
Fore
SplineSet
298 524 m 1xd0
 287 457 l 1
 217 457 l 1
 137 0 l 1
 68 0 l 1
 148 457 l 1
 90 457 l 1
 102 524 l 1
 159 524 l 1
 175 613 l 2
 188 687 233 732 297 732 c 0
 310 732 319 731 334 727 c 1
 322 658 l 1
 310 660 306 660 298 660 c 0
 263 660 249 644 240 593 c 2
 228 524 l 1
 298 524 l 1xd0
449 524 m 1
 357 0 l 1
 289 0 l 1
 380 524 l 1
 449 524 l 1
485 729 m 1x20
 466 626 l 1
 397 626 l 1
 416 729 l 1
 485 729 l 1x20
EndSplineSet
EndChar

StartChar: fl
Encoding: 64258 64258 94
Width: 410
Flags: W
HStem: 0 20 457 67<106 152 94 163 232 291 106 221> 660 72<284.5 306> 709 20<411 480 480 480>
LayerCount: 2
Fore
SplineSet
302 524 m 1xe0
 291 457 l 1
 221 457 l 1
 141 0 l 1
 72 0 l 1
 152 457 l 1
 94 457 l 1
 106 524 l 1
 163 524 l 1
 179 613 l 2
 192 687 237 732 301 732 c 0
 314 732 323 731 338 727 c 1
 326 658 l 1
 314 660 310 660 302 660 c 0
 267 660 253 644 244 593 c 2
 232 524 l 1
 302 524 l 1xe0
480 729 m 1x90
 352 0 l 1
 284 0 l 1
 411 729 l 1
 480 729 l 1x90
EndSplineSet
EndChar

StartChar: adieresis
Encoding: 228 228 95
Width: 456
Flags: MW
HStem: -23 72<174.5 185.5> 462 77<286.5 330> 612 103<245 312 227 330 245 359 377 444>
VStem: 53 72<94.5 132 94.5 133.5> 391 74<394 460.5>
LayerCount: 2
Fore
SplineSet
330 715 m 1
 312 612 l 1
 227 612 l 1
 245 715 l 1
 330 715 l 1
462 715 m 1
 444 612 l 1
 359 612 l 1
 377 715 l 1
 462 715 l 1
452 51 m 1
 442 -14 l 1
 430 -17 l 1
 411 -23 408 -23 398 -23 c 0
 359 -23 336 1 336 43 c 2
 336 47 l 1
 336 54 l 1
 301 17 289 7 261 -4 c 0
 232 -16 200 -23 171 -23 c 0
 98 -23 53 25 53 104 c 0
 53 163 77 215 120 249 c 0
 159 280 196 290 305 302 c 0
 365 309 380 320 388 361 c 1
 390 379 l 2
 391 383 391 390 391 398 c 0
 391 435 355 462 305 462 c 0
 268 462 234 447 215 423 c 0
 205 409 199 396 192 369 c 1
 123 369 l 1
 139 480 208 539 323 539 c 0
 409 539 465 495 465 426 c 0
 465 413 465 413 460 389 c 2
 408 88 l 2
 407 84 407 80 407 77 c 0
 407 59 418 49 438 49 c 0
 442 49 445 49 452 51 c 1
353 164 m 2
 370 258 l 1
 333 243 326 242 249 229 c 0
 209 222 184 213 165 199 c 0
 140 180 125 148 125 116 c 0
 125 73 151 49 198 49 c 0
 270 49 342 102 353 164 c 2
EndSplineSet
EndChar

StartChar: aacute
Encoding: 225 225 96
Width: 456
Flags: MW
HStem: -23 72<174.5 185.5> 462 77<286.5 330> 720 20<375 467 467 467>
VStem: 53 72<94.5 132 94.5 133.5> 391 74<394 460.5>
LayerCount: 2
Fore
SplineSet
375 740 m 1
 467 740 l 1
 320 592 l 1
 270 592 l 1
 375 740 l 1
452 51 m 1
 442 -14 l 1
 430 -17 l 1
 411 -23 408 -23 398 -23 c 0
 359 -23 336 1 336 43 c 2
 336 47 l 1
 336 54 l 1
 301 17 289 7 261 -4 c 0
 232 -16 200 -23 171 -23 c 0
 98 -23 53 25 53 104 c 0
 53 163 77 215 120 249 c 0
 159 280 196 290 305 302 c 0
 365 309 380 320 388 361 c 1
 390 379 l 2
 391 383 391 390 391 398 c 0
 391 435 355 462 305 462 c 0
 268 462 234 447 215 423 c 0
 205 409 199 396 192 369 c 1
 123 369 l 1
 139 480 208 539 323 539 c 0
 409 539 465 495 465 426 c 0
 465 413 465 413 460 389 c 2
 408 88 l 2
 407 84 407 80 407 77 c 0
 407 59 418 49 438 49 c 0
 442 49 445 49 452 51 c 1
353 164 m 2
 370 258 l 1
 333 243 326 242 249 229 c 0
 209 222 184 213 165 199 c 0
 140 180 125 148 125 116 c 0
 125 73 151 49 198 49 c 0
 270 49 342 102 353 164 c 2
EndSplineSet
EndChar

StartChar: agrave
Encoding: 224 224 97
Width: 456
Flags: MW
HStem: -23 72<174.5 185.5> 462 77<286.5 330> 720 20<233 321 321 321>
VStem: 53 72<94.5 132 94.5 133.5> 391 74<394 460.5>
LayerCount: 2
Fore
SplineSet
321 740 m 1
 379 592 l 1
 336 592 l 1
 233 740 l 1
 321 740 l 1
452 51 m 1
 442 -14 l 1
 430 -17 l 1
 411 -23 408 -23 398 -23 c 0
 359 -23 336 1 336 43 c 2
 336 47 l 1
 336 54 l 1
 301 17 289 7 261 -4 c 0
 232 -16 200 -23 171 -23 c 0
 98 -23 53 25 53 104 c 0
 53 163 77 215 120 249 c 0
 159 280 196 290 305 302 c 0
 365 309 380 320 388 361 c 1
 390 379 l 2
 391 383 391 390 391 398 c 0
 391 435 355 462 305 462 c 0
 268 462 234 447 215 423 c 0
 205 409 199 396 192 369 c 1
 123 369 l 1
 139 480 208 539 323 539 c 0
 409 539 465 495 465 426 c 0
 465 413 465 413 460 389 c 2
 408 88 l 2
 407 84 407 80 407 77 c 0
 407 59 418 49 438 49 c 0
 442 49 445 49 452 51 c 1
353 164 m 2
 370 258 l 1
 333 243 326 242 249 229 c 0
 209 222 184 213 165 199 c 0
 140 180 125 148 125 116 c 0
 125 73 151 49 198 49 c 0
 270 49 342 102 353 164 c 2
EndSplineSet
EndChar

StartChar: acircumflex
Encoding: 226 226 98
Width: 456
Flags: MW
HStem: -23 72<174.5 185.5> 462 77<286.5 330> 721 20<322 400 400 400>
VStem: 53 72<94.5 132 94.5 133.5> 391 74<394 460.5>
LayerCount: 2
Fore
SplineSet
322 741 m 1
 400 741 l 1
 452 591 l 1
 401 591 l 1
 355 690 l 1
 269 591 l 1
 217 591 l 1
 322 741 l 1
452 51 m 1
 442 -14 l 1
 430 -17 l 1
 411 -23 408 -23 398 -23 c 0
 359 -23 336 1 336 43 c 2
 336 47 l 1
 336 54 l 1
 301 17 289 7 261 -4 c 0
 232 -16 200 -23 171 -23 c 0
 98 -23 53 25 53 104 c 0
 53 163 77 215 120 249 c 0
 159 280 196 290 305 302 c 0
 365 309 380 320 388 361 c 1
 390 379 l 2
 391 383 391 390 391 398 c 0
 391 435 355 462 305 462 c 0
 268 462 234 447 215 423 c 0
 205 409 199 396 192 369 c 1
 123 369 l 1
 139 480 208 539 323 539 c 0
 409 539 465 495 465 426 c 0
 465 413 465 413 460 389 c 2
 408 88 l 2
 407 84 407 80 407 77 c 0
 407 59 418 49 438 49 c 0
 442 49 445 49 452 51 c 1
353 164 m 2
 370 258 l 1
 333 243 326 242 249 229 c 0
 209 222 184 213 165 199 c 0
 140 180 125 148 125 116 c 0
 125 73 151 49 198 49 c 0
 270 49 342 102 353 164 c 2
EndSplineSet
EndChar

StartChar: atilde
Encoding: 227 227 99
Width: 456
Flags: W
HStem: -23 72<174.5 185.5> 462 77<286 329.5> 612 70<391 403 391 407.5> 644 70<274 285>
VStem: 53 72<94.5 132 94.5 133.5> 391 74<394 460.5>
LayerCount: 2
Fore
SplineSet
452 51 m 1xec
 442 -14 l 1
 430 -17 l 1
 411 -23 408 -23 398 -23 c 0
 359 -23 336 1 336 43 c 2
 336 47 l 1
 336 54 l 1
 300 16 289 7 261 -4 c 0
 232 -16 200 -23 171 -23 c 0
 98 -23 53 25 53 104 c 0
 53 163 77 215 120 249 c 0
 159 280 196 290 305 302 c 0
 365 309 380 320 387 361 c 2
 390 379 l 2
 391 383 391 390 391 398 c 0
 391 435 355 462 304 462 c 0
 268 462 234 447 215 423 c 0
 205 409 199 396 192 369 c 1
 123 369 l 1
 139 480 208 539 323 539 c 0
 409 539 465 495 465 426 c 0
 465 413 465 413 460 389 c 2
 408 88 l 2
 407 84 407 80 407 77 c 0
 407 59 418 49 438 49 c 0
 442 49 445 49 452 51 c 1xec
353 164 m 2
 370 258 l 1
 333 243 326 242 249 229 c 0
 209 222 184 213 165 199 c 0
 140 180 125 148 125 116 c 0
 125 73 151 49 198 49 c 0
 270 49 342 102 353 164 c 2
434 719 m 1
 478 719 l 1
 462 656 425 612 390 612 c 0x2c
 373 612 356 617 305 639 c 0
 297 642 288 644 282 644 c 0
 266 644 257 638 247 620 c 2
 242 611 l 1
 198 611 l 1
 208 647 215 665 226 680 c 0
 240 701 263 714 284 714 c 0x1c
 299 714 311 711 343 697 c 1
 364 689 387 682 395 682 c 0
 411 682 421 692 434 719 c 1
EndSplineSet
EndChar

StartChar: aring
Encoding: 229 229 100
Width: 456
Flags: MW
HStem: -23 72<174.5 185.5> 462 77<286.5 330> 579 44<331 349.5 331 354.5> 710 44<343 361>
VStem: 53 72<94.5 132 94.5 133.5> 273 38<647 672.5 647 676.5> 391 74<394 460.5>
LayerCount: 2
Fore
SplineSet
452 51 m 1
 442 -14 l 1
 430 -17 l 1
 411 -23 408 -23 398 -23 c 0
 359 -23 336 1 336 43 c 2
 336 47 l 1
 336 54 l 1
 301 17 289 7 261 -4 c 0
 232 -16 200 -23 171 -23 c 0
 98 -23 53 25 53 104 c 0
 53 163 77 215 120 249 c 0
 159 280 196 290 305 302 c 0
 365 309 380 320 388 361 c 1
 390 379 l 2
 391 383 391 390 391 398 c 0
 391 435 355 462 305 462 c 0
 268 462 234 447 215 423 c 0
 205 409 199 396 192 369 c 1
 123 369 l 1
 139 480 208 539 323 539 c 0
 409 539 465 495 465 426 c 0
 465 413 465 413 460 389 c 2
 408 88 l 2
 407 84 407 80 407 77 c 0
 407 59 418 49 438 49 c 0
 442 49 445 49 452 51 c 1
353 164 m 2
 370 258 l 1
 333 243 326 242 249 229 c 0
 209 222 184 213 165 199 c 0
 140 180 125 148 125 116 c 0
 125 73 151 49 198 49 c 0
 270 49 342 102 353 164 c 2
362 754 m 0
 397 754 420 727 420 687 c 0
 420 630 378 579 331 579 c 0
 298 579 273 610 273 650 c 0
 273 703 316 754 362 754 c 0
355 710 m 0
 331 710 311 687 311 658 c 0
 311 636 322 623 340 623 c 0
 359 623 383 648 383 667 c 0
 383 687 383 689 380 694 c 0
 375 705 367 710 355 710 c 0
EndSplineSet
EndChar

StartChar: ccedilla
Encoding: 231 231 101
Width: 410
Flags: MW
HStem: -214 43<151.5 173 151.5 195> -94 148<188 256> 462 77<275.5 326>
VStem: 62 72<142 211 142 218> 216 64 384 70<391.5 397.5>
LayerCount: 2
Fore
SplineSet
222 -23 m 1
 207 -56 l 1
 219 -54 221 -54 225 -54 c 0
 255 -54 280 -78 280 -106 c 0
 280 -168 229 -214 161 -214 c 0
 129 -214 107 -206 64 -180 c 1
 86 -142 l 1
 120 -163 140 -171 163 -171 c 0
 183 -171 199 -162 209 -145 c 0
 213 -137 214 -135 215 -123 c 0
 215 -119 215 -119 216 -116 c 1
 214 -104 203 -94 190 -94 c 0
 186 -94 186 -94 173 -97 c 2
 168 -98 l 1
 157 -92 l 1
 188 -22 l 1
 148 -13 131 -3 110 22 c 0
 80 58 62 114 62 170 c 0
 62 266 91 376 132 438 c 1
 177 504 239 539 312 539 c 0
 359 539 393 524 418 492 c 0
 440 464 454 425 454 393 c 0
 454 390 453 379 452 363 c 1
 452 348 l 1
 383 348 l 1
 384 357 384 365 384 369 c 0
 384 426 352 462 300 462 c 0
 248 462 207 431 176 367 c 0
 151 317 134 242 134 180 c 0
 134 104 170 54 226 54 c 0
 286 54 331 98 356 180 c 1
 424 180 l 1
 398 51 328 -19 222 -23 c 1
EndSplineSet
EndChar

StartChar: edieresis
Encoding: 235 235 102
Width: 456
Flags: MW
HStem: -23 77<210.5 270 210.5 280> 234 72<160 401 160 462 145 401> 462 77<284.5 337> 612 103<243 309 225 328 243 357 375 441>
VStem: 69 72<146.5 200 146.5 215> 404 72<354.5 375.5>
LayerCount: 2
Fore
SplineSet
328 715 m 1
 309 612 l 1
 225 612 l 1
 243 715 l 1
 328 715 l 1
460 715 m 1
 441 612 l 1
 357 612 l 1
 375 715 l 1
 460 715 l 1
462 234 m 1
 145 234 l 1
 142 218 141 210 141 190 c 0
 141 103 178 54 243 54 c 0
 297 54 342 90 371 159 c 1
 440 159 l 1
 415 52 329 -23 231 -23 c 0
 183 -23 145 -5 116 32 c 0
 86 69 69 121 69 172 c 0
 69 258 101 373 142 437 c 0
 184 502 249 539 320 539 c 0
 408 539 476 464 476 368 c 0
 476 341 472 299 464 251 c 1
 462 234 l 1
160 306 m 1
 401 306 l 1
 404 328 404 332 404 338 c 0
 404 413 366 462 308 462 c 0
 242 462 181 398 160 306 c 1
EndSplineSet
EndChar

StartChar: eacute
Encoding: 233 233 103
Width: 456
Flags: MW
HStem: -23 77<210.5 270 210.5 280> 234 72<160 401 160 462 145 401> 462 77<284.5 337> 720 20<384 476 476 476>
VStem: 69 72<146.5 200 146.5 215> 404 72<354.5 375.5>
LayerCount: 2
Fore
SplineSet
384 740 m 1
 476 740 l 1
 328 592 l 1
 279 592 l 1
 384 740 l 1
462 234 m 1
 145 234 l 1
 142 218 141 210 141 190 c 0
 141 103 178 54 243 54 c 0
 297 54 342 90 371 159 c 1
 440 159 l 1
 415 52 329 -23 231 -23 c 0
 183 -23 145 -5 116 32 c 0
 86 69 69 121 69 172 c 0
 69 258 101 373 142 437 c 0
 184 502 249 539 320 539 c 0
 408 539 476 464 476 368 c 0
 476 341 472 299 464 251 c 1
 462 234 l 1
160 306 m 1
 401 306 l 1
 404 328 404 332 404 338 c 0
 404 413 366 462 308 462 c 0
 242 462 181 398 160 306 c 1
EndSplineSet
EndChar

StartChar: egrave
Encoding: 232 232 104
Width: 456
Flags: MW
HStem: -23 77<210.5 270 210.5 280> 234 72<160 401 160 462 145 401> 462 77<284.5 337> 720 20<228 315 315 315>
VStem: 69 72<146.5 200 146.5 215> 404 72<354.5 375.5>
LayerCount: 2
Fore
SplineSet
315 740 m 1
 374 592 l 1
 330 592 l 1
 228 740 l 1
 315 740 l 1
462 234 m 1
 145 234 l 1
 142 218 141 210 141 190 c 0
 141 103 178 54 243 54 c 0
 297 54 342 90 371 159 c 1
 440 159 l 1
 415 52 329 -23 231 -23 c 0
 183 -23 145 -5 116 32 c 0
 86 69 69 121 69 172 c 0
 69 258 101 373 142 437 c 0
 184 502 249 539 320 539 c 0
 408 539 476 464 476 368 c 0
 476 341 472 299 464 251 c 1
 462 234 l 1
160 306 m 1
 401 306 l 1
 404 328 404 332 404 338 c 0
 404 413 366 462 308 462 c 0
 242 462 181 398 160 306 c 1
EndSplineSet
EndChar

StartChar: ecircumflex
Encoding: 234 234 105
Width: 456
Flags: MW
HStem: -23 77<210.5 270 210.5 280> 234 72<160 401 160 462 145 401> 462 77<284.5 337> 721 20<319 396 396 396>
VStem: 69 72<146.5 200 146.5 215> 404 72<354.5 375.5>
LayerCount: 2
Fore
SplineSet
319 741 m 1
 396 741 l 1
 449 591 l 1
 397 591 l 1
 351 690 l 1
 267 591 l 1
 214 591 l 1
 319 741 l 1
462 234 m 1
 145 234 l 1
 142 218 141 210 141 190 c 0
 141 103 178 54 243 54 c 0
 297 54 342 90 371 159 c 1
 440 159 l 1
 415 52 329 -23 231 -23 c 0
 183 -23 145 -5 116 32 c 0
 86 69 69 121 69 172 c 0
 69 258 101 373 142 437 c 0
 184 502 249 539 320 539 c 0
 408 539 476 464 476 368 c 0
 476 341 472 299 464 251 c 1
 462 234 l 1
160 306 m 1
 401 306 l 1
 404 328 404 332 404 338 c 0
 404 413 366 462 308 462 c 0
 242 462 181 398 160 306 c 1
EndSplineSet
EndChar

StartChar: idieresis
Encoding: 239 239 106
Width: 228
Flags: MW
HStem: 0 20 605 103<126 193 108 211 126 240 258 325>
LayerCount: 2
Fore
SplineSet
238 527 m 1
 146 0 l 1
 77 0 l 1
 169 527 l 1
 238 527 l 1
211 708 m 1
 193 605 l 1
 108 605 l 1
 126 708 l 1
 211 708 l 1
344 708 m 1
 325 605 l 1
 240 605 l 1
 258 708 l 1
 344 708 l 1
EndSplineSet
EndChar

StartChar: iacute
Encoding: 237 237 107
Width: 228
Flags: MW
HStem: 0 20 720 20<262 353 353 353>
LayerCount: 2
Fore
SplineSet
238 527 m 1
 146 0 l 1
 77 0 l 1
 169 527 l 1
 238 527 l 1
262 740 m 1
 353 740 l 1
 206 592 l 1
 157 592 l 1
 262 740 l 1
EndSplineSet
EndChar

StartChar: igrave
Encoding: 236 236 108
Width: 228
Flags: MW
HStem: 0 20 720 20<125 212 212 212>
LayerCount: 2
Fore
SplineSet
238 527 m 1
 146 0 l 1
 77 0 l 1
 169 527 l 1
 238 527 l 1
212 740 m 1
 271 592 l 1
 227 592 l 1
 125 740 l 1
 212 740 l 1
EndSplineSet
EndChar

StartChar: icircumflex
Encoding: 238 238 109
Width: 228
Flags: MW
HStem: 0 20 721 20<202 280 280 280>
LayerCount: 2
Fore
SplineSet
238 527 m 1
 146 0 l 1
 77 0 l 1
 169 527 l 1
 238 527 l 1
202 741 m 1
 280 741 l 1
 333 591 l 1
 281 591 l 1
 235 690 l 1
 150 591 l 1
 98 591 l 1
 202 741 l 1
EndSplineSet
EndChar

StartChar: lslash
Encoding: 322 322 110
Width: 182
Flags: MW
HStem: 0 20 709 20<183 251 251 251>
LayerCount: 2
Fore
SplineSet
197 414 m 1
 256 456 l 1
 244 389 l 1
 185 347 l 1
 124 0 l 1
 56 0 l 1
 110 314 l 1
 51 270 l 1
 63 337 l 1
 122 382 l 1
 183 729 l 1
 251 729 l 1
 197 414 l 1
EndSplineSet
EndChar

StartChar: ntilde
Encoding: 241 241 111
Width: 456
Flags: W
HStem: 0 20 467 72<327.5 347> 504 20<148 211 211 211> 612 70<396 407.5 396 412> 644 70<278 289>
VStem: 398 72<406 409.5>
LayerCount: 2
Fore
SplineSet
148 524 m 1xa4
 211 524 l 1x34
 199 459 l 1
 242 512 296 539 359 539 c 0
 427 539 470 490 470 413 c 0
 470 399 469 388 467 376 c 2
 401 0 l 1
 333 0 l 1
 393 349 l 2
 397 367 398 379 398 386 c 0
 398 433 368 467 326 467 c 0xc4
 253 467 195 399 176 289 c 2
 126 0 l 1
 57 0 l 1
 148 524 l 1xa4
438 719 m 1
 482 719 l 1
 466 656 430 612 394 612 c 0x14
 377 612 362 617 309 639 c 0
 301 642 292 644 286 644 c 0
 270 644 262 638 252 620 c 1
 246 611 l 1
 203 611 l 1
 214 649 220 665 230 680 c 0
 244 701 267 714 288 714 c 0x0c
 303 714 316 710 348 697 c 0
 369 689 392 682 400 682 c 0
 415 682 424 691 438 719 c 1
EndSplineSet
EndChar

StartChar: odieresis
Encoding: 246 246 112
Width: 456
Flags: MW
HStem: -23 77<203.5 259.5> 462 77<278 335.5> 612 103<239 305 221 324 239 353 371 437>
VStem: 66 72<144 208.5> 401 72<307.5 373>
LayerCount: 2
Fore
SplineSet
324 715 m 1
 305 612 l 1
 221 612 l 1
 239 715 l 1
 324 715 l 1
456 715 m 1
 437 612 l 1
 353 612 l 1
 371 715 l 1
 456 715 l 1
315 539 m 0
 410 539 473 465 473 352 c 0
 473 263 444 151 404 87 c 0
 358 13 298 -23 221 -23 c 0
 129 -23 66 53 66 164 c 0
 66 253 95 365 133 429 c 0
 176 500 241 539 315 539 c 0
306 462 m 0
 249 462 202 424 172 352 c 0
 151 304 138 239 138 185 c 0
 138 103 174 54 233 54 c 0
 290 54 336 92 367 164 c 0
 388 212 401 279 401 333 c 0
 401 413 365 462 306 462 c 0
EndSplineSet
EndChar

StartChar: oacute
Encoding: 243 243 113
Width: 456
Flags: MW
HStem: -23 77<203.5 259.5> 462 77<278 335.5> 720 20<381 473 473 473>
VStem: 66 72<144 208.5> 401 72<307.5 373>
LayerCount: 2
Fore
SplineSet
381 740 m 1
 473 740 l 1
 325 592 l 1
 276 592 l 1
 381 740 l 1
315 539 m 0
 410 539 473 465 473 352 c 0
 473 263 444 151 404 87 c 0
 358 13 298 -23 221 -23 c 0
 129 -23 66 53 66 164 c 0
 66 253 95 365 133 429 c 0
 176 500 241 539 315 539 c 0
306 462 m 0
 249 462 202 424 172 352 c 0
 151 304 138 239 138 185 c 0
 138 103 174 54 233 54 c 0
 290 54 336 92 367 164 c 0
 388 212 401 279 401 333 c 0
 401 413 365 462 306 462 c 0
EndSplineSet
EndChar

StartChar: ograve
Encoding: 242 242 114
Width: 456
Flags: MW
HStem: -23 77<203.5 259.5> 462 77<278 335.5> 720 20<225 312 312 312>
VStem: 66 72<144 208.5> 401 72<307.5 373>
LayerCount: 2
Fore
SplineSet
312 740 m 1
 371 592 l 1
 327 592 l 1
 225 740 l 1
 312 740 l 1
315 539 m 0
 410 539 473 465 473 352 c 0
 473 263 444 151 404 87 c 0
 358 13 298 -23 221 -23 c 0
 129 -23 66 53 66 164 c 0
 66 253 95 365 133 429 c 0
 176 500 241 539 315 539 c 0
306 462 m 0
 249 462 202 424 172 352 c 0
 151 304 138 239 138 185 c 0
 138 103 174 54 233 54 c 0
 290 54 336 92 367 164 c 0
 388 212 401 279 401 333 c 0
 401 413 365 462 306 462 c 0
EndSplineSet
EndChar

StartChar: ocircumflex
Encoding: 244 244 115
Width: 456
Flags: MW
HStem: -23 77<203.5 259.5> 462 77<278 335.5> 721 20<314 391 391 391>
VStem: 66 72<144 208.5> 401 72<307.5 373>
LayerCount: 2
Fore
SplineSet
314 741 m 1
 391 741 l 1
 445 591 l 1
 392 591 l 1
 346 690 l 1
 262 591 l 1
 209 591 l 1
 314 741 l 1
315 539 m 0
 410 539 473 465 473 352 c 0
 473 263 444 151 404 87 c 0
 358 13 298 -23 221 -23 c 0
 129 -23 66 53 66 164 c 0
 66 253 95 365 133 429 c 0
 176 500 241 539 315 539 c 0
306 462 m 0
 249 462 202 424 172 352 c 0
 151 304 138 239 138 185 c 0
 138 103 174 54 233 54 c 0
 290 54 336 92 367 164 c 0
 388 212 401 279 401 333 c 0
 401 413 365 462 306 462 c 0
EndSplineSet
EndChar

StartChar: otilde
Encoding: 245 245 116
Width: 456
Flags: W
HStem: -23 77<203.5 259.5> 462 77<278 335.5> 612 70<392 403.5 392 408> 644 70<274 285>
VStem: 66 72<144 208.5> 401 72<307.5 373>
LayerCount: 2
Fore
SplineSet
315 539 m 0xec
 410 539 473 465 473 352 c 0
 473 263 444 151 404 87 c 0
 358 13 298 -23 221 -23 c 0
 129 -23 66 53 66 164 c 0
 66 253 95 365 133 429 c 0
 176 500 241 539 315 539 c 0xec
306 462 m 0
 249 462 202 424 172 352 c 0
 151 304 138 239 138 185 c 0
 138 103 174 54 233 54 c 0
 290 54 336 92 367 164 c 0
 388 213 401 279 401 333 c 0
 401 413 365 462 306 462 c 0
435 719 m 1
 478 719 l 1
 463 656 426 612 390 612 c 0x2c
 374 612 357 617 305 639 c 0
 298 642 288 644 282 644 c 0
 266 644 258 638 248 620 c 0
 246 617 244 614 243 611 c 1
 199 611 l 1
 210 649 216 665 226 680 c 0
 240 700 263 714 284 714 c 0x1c
 299 714 312 710 344 697 c 0
 364 689 388 682 396 682 c 0
 411 682 420 690 435 719 c 1
EndSplineSet
EndChar

StartChar: scaron
Encoding: 353 353 117
Width: 410
Flags: W
HStem: -23 77<186.5 233.5 186.5 264> 462 77<259.5 302> 720 20<213 265 265 265 396 449 449 449>
VStem: 50 76<106.5 113> 101 72<354 376.5 354 401> 332 72<141.5 165>
LayerCount: 2
Fore
SplineSet
344 592 m 1xec
 266 592 l 1
 213 740 l 1
 265 740 l 1
 311 642 l 1
 396 740 l 1
 449 740 l 1
 344 592 l 1xec
421 378 m 1
 353 378 l 1
 353 389 l 1
 353 394 l 1
 353 400 l 2
 353 440 326 462 278 462 c 0
 241 462 215 451 196 427 c 0
 182 410 173 386 173 367 c 0xe8
 173 341 197 321 243 307 c 2
 305 288 l 2
 378 266 404 235 404 173 c 0
 404 54 325 -23 203 -23 c 0
 107 -23 50 25 50 105 c 0
 50 121 51 132 55 156 c 1
 128 156 l 1
 127 146 126 138 126 131 c 0xf4
 126 82 158 54 215 54 c 0
 252 54 288 68 308 90 c 0
 320 103 332 133 332 150 c 0
 332 180 316 196 275 209 c 2
 214 228 l 2
 129 255 101 283 101 345 c 0
 101 457 182 539 292 539 c 0
 372 539 426 492 426 422 c 0
 426 406 425 398 421 378 c 1
EndSplineSet
EndChar

StartChar: udieresis
Encoding: 252 252 118
Width: 456
Flags: MW
HStem: -23 72<196.5 217> 504 20<145 214 214 214 418 487 487 487> 612 103<238 304 220 323 238 352 370 436>
VStem: 72 75<52 131>
LayerCount: 2
Fore
SplineSet
323 715 m 1
 304 612 l 1
 220 612 l 1
 238 715 l 1
 323 715 l 1
455 715 m 1
 436 612 l 1
 352 612 l 1
 370 715 l 1
 455 715 l 1
396 0 m 1
 334 0 l 1
 343 57 l 1
 296 1 249 -23 185 -23 c 0
 115 -23 72 18 72 86 c 0
 72 99 73 110 75 120 c 2
 145 524 l 1
 214 524 l 1
 149 153 l 2
 148 145 147 136 147 126 c 0
 147 78 174 49 219 49 c 0
 290 49 348 119 366 227 c 2
 418 524 l 1
 487 524 l 1
 396 0 l 1
EndSplineSet
EndChar

StartChar: uacute
Encoding: 250 250 119
Width: 456
Flags: MW
HStem: -23 72<196.5 217> 504 20<145 214 214 214 418 487 487 487> 720 20<379 471 471 471>
VStem: 72 75<52 131>
LayerCount: 2
Fore
SplineSet
379 740 m 1
 471 740 l 1
 324 592 l 1
 275 592 l 1
 379 740 l 1
396 0 m 1
 334 0 l 1
 343 57 l 1
 296 1 249 -23 185 -23 c 0
 115 -23 72 18 72 86 c 0
 72 99 73 110 75 120 c 2
 145 524 l 1
 214 524 l 1
 149 153 l 2
 148 145 147 136 147 126 c 0
 147 78 174 49 219 49 c 0
 290 49 348 119 366 227 c 2
 418 524 l 1
 487 524 l 1
 396 0 l 1
EndSplineSet
EndChar

StartChar: ugrave
Encoding: 249 249 120
Width: 456
Flags: MW
HStem: -23 72<196.5 217> 504 20<145 214 214 214 418 487 487 487> 720 20<221 308 308 308>
VStem: 72 75<52 131>
LayerCount: 2
Fore
SplineSet
308 740 m 1
 367 592 l 1
 323 592 l 1
 221 740 l 1
 308 740 l 1
396 0 m 1
 334 0 l 1
 343 57 l 1
 296 1 249 -23 185 -23 c 0
 115 -23 72 18 72 86 c 0
 72 99 73 110 75 120 c 2
 145 524 l 1
 214 524 l 1
 149 153 l 2
 148 145 147 136 147 126 c 0
 147 78 174 49 219 49 c 0
 290 49 348 119 366 227 c 2
 418 524 l 1
 487 524 l 1
 396 0 l 1
EndSplineSet
EndChar

StartChar: ucircumflex
Encoding: 251 251 121
Width: 456
Flags: MW
HStem: -23 72<196.5 217> 504 20<145 214 214 214 418 487 487 487> 721 20<311 389 389 389>
VStem: 72 75<52 131>
LayerCount: 2
Fore
SplineSet
311 741 m 1
 389 741 l 1
 442 591 l 1
 389 591 l 1
 343 690 l 1
 259 591 l 1
 206 591 l 1
 311 741 l 1
396 0 m 1
 334 0 l 1
 343 57 l 1
 296 1 249 -23 185 -23 c 0
 115 -23 72 18 72 86 c 0
 72 99 73 110 75 120 c 2
 145 524 l 1
 214 524 l 1
 149 153 l 2
 148 145 147 136 147 126 c 0
 147 78 174 49 219 49 c 0
 290 49 348 119 366 227 c 2
 418 524 l 1
 487 524 l 1
 396 0 l 1
EndSplineSet
EndChar

StartChar: yacute
Encoding: 253 253 122
Width: 410
Flags: MW
HStem: -218 20 720 20<357 448 448 448>
LayerCount: 2
Fore
SplineSet
411 524 m 1
 484 524 l 1
 182 -110 l 2
 147 -185 106 -218 48 -218 c 0
 31 -218 22 -216 7 -208 c 1
 20 -133 l 1
 27 -134 l 2
 34 -135 39 -136 41 -136 c 2
 49 -136 l 1
 59 -136 l 2
 89 -136 100 -127 122 -85 c 2
 164 -4 l 1
 109 524 l 1
 182 524 l 1
 220 117 l 1
 411 524 l 1
357 740 m 1
 448 740 l 1
 301 592 l 1
 252 592 l 1
 357 740 l 1
EndSplineSet
EndChar

StartChar: zcaron
Encoding: 382 382 123
Width: 410
Flags: MW
HStem: 0 72<120 375> 452 72<135 364 123 456> 720 20<214 265 265 265 396 449 449 449>
LayerCount: 2
Fore
SplineSet
456 524 m 1
 442 449 l 1
 120 72 l 1
 387 72 l 1
 375 0 l 1
 25 0 l 1
 40 74 l 1
 364 452 l 1
 123 452 l 1
 135 524 l 1
 456 524 l 1
343 592 m 1
 266 592 l 1
 214 740 l 1
 265 740 l 1
 311 642 l 1
 396 740 l 1
 449 740 l 1
 343 592 l 1
EndSplineSet
EndChar

StartChar: eth
Encoding: 240 240 124
Width: 456
Flags: W
HStem: -23 77<203.5 261.5 203.5 261.5> 462 72<277.5 314 268.5 335.5> 709 20<244 244> 723 20<226 226>
VStem: 66 72<144 208.5> 401 72<306 373>
LayerCount: 2
Fore
SplineSet
206 564 m 1xec
 180 603 l 1
 253 644 l 1
 248 650 243 656 237 661 c 2
 214 679 l 2
 206 685 198 691 191 698 c 1
 226 743 l 1xdc
 238 734 l 1
 244 729 l 1
 254 722 264 715 273 707 c 2
 303 681 l 1
 310 676 l 1
 391 719 l 1
 423 681 l 1
 345 640 l 1
 431 549 473 454 473 347 c 0
 473 263 443 150 404 87 c 0
 359 15 298 -23 225 -23 c 0
 174 -23 135 -5 107 31 c 0
 82 64 66 115 66 164 c 0
 66 253 94 364 134 429 c 1
 175 498 234 534 303 534 c 0
 325 534 335 531 357 518 c 1
 330 560 318 576 288 609 c 1
 206 564 l 1xec
306 462 m 0
 249 462 202 424 172 352 c 0
 151 304 138 239 138 185 c 0
 138 103 174 54 233 54 c 0
 290 54 336 92 367 164 c 0
 387 212 401 279 401 333 c 0
 401 413 365 462 306 462 c 0
EndSplineSet
EndChar

StartChar: thorn
Encoding: 254 254 125
Width: 456
Flags: MW
HStem: -213 20 -23 77<218 272> 462 77<306.5 341.5> 709 20<170 239 239 239>
VStem: 409 72<298.5 367>
LayerCount: 2
Fore
SplineSet
6 -213 m 1
 170 729 l 1
 239 729 l 1
 189 440 l 1
 213 498 275 539 338 539 c 0
 426 539 481 464 481 346 c 0
 481 243 452 137 405 70 c 0
 362 10 304 -23 240 -23 c 0
 183 -23 149 4 124 68 c 1
 75 -213 l 1
 6 -213 l 1
311 462 m 0
 259 462 217 427 186 356 c 0
 164 305 150 240 150 184 c 0
 150 104 188 54 248 54 c 0
 302 54 344 89 375 160 c 1
 395 209 409 273 409 324 c 0
 409 410 372 462 311 462 c 0
EndSplineSet
EndChar

StartChar: ydieresis
Encoding: 255 255 126
Width: 410
Flags: MW
HStem: -218 20 612 103<220 287 202 305 220 334 352 419>
LayerCount: 2
Fore
SplineSet
411 524 m 1
 484 524 l 1
 182 -110 l 2
 147 -185 106 -218 48 -218 c 0
 31 -218 22 -216 7 -208 c 1
 20 -133 l 1
 27 -134 l 2
 34 -135 39 -136 41 -136 c 2
 49 -136 l 1
 59 -136 l 2
 89 -136 100 -127 122 -85 c 2
 164 -4 l 1
 109 524 l 1
 182 524 l 1
 220 117 l 1
 411 524 l 1
305 715 m 1
 287 612 l 1
 202 612 l 1
 220 715 l 1
 305 715 l 1
438 715 m 1
 419 612 l 1
 334 612 l 1
 352 715 l 1
 438 715 l 1
EndSplineSet
EndChar

StartChar: one
Encoding: 49 49 127
Width: 456
Flags: MW
HStem: 0 20
LayerCount: 2
Fore
SplineSet
301 505 m 1
 171 505 l 1
 182 568 l 1
 300 588 317 601 361 709 c 1
 409 709 l 1
 285 0 l 1
 213 0 l 1
 301 505 l 1
EndSplineSet
EndChar

StartChar: two
Encoding: 50 50 128
Width: 456
Flags: MW
HStem: 0 87<121 414> 632 77<302.5 369.5>
VStem: 437 72<494 556.5>
LayerCount: 2
Fore
SplineSet
430 87 m 1
 414 0 l 1
 28 0 l 1
 63 160 102 216 244 307 c 1
 329 359 l 2
 396 400 437 463 437 525 c 0
 437 588 398 632 341 632 c 0
 264 632 217 579 193 463 c 1
 121 463 l 1
 152 632 225 709 351 709 c 0
 397 709 432 697 458 672 c 0
 490 642 509 591 509 538 c 0
 509 438 455 354 346 287 c 2
 254 230 l 2
 180 185 134 136 121 87 c 1
 430 87 l 1
EndSplineSet
EndChar

StartChar: three
Encoding: 51 51 129
Width: 456
Flags: W
HStem: -23 77<197.5 252.5> 632 77<308.5 358.5>
VStem: 58 72<123.5 152> 383 72<215.5 264> 419 72<517 572.5>
LayerCount: 2
Fore
SplineSet
238 325 m 1xf0
 251 400 l 1
 261 400 l 1
 266 400 l 2
 369 400 419 448 419 546 c 0
 419 599 385 632 332 632 c 0
 284 632 245 608 220 565 c 0
 209 545 202 522 194 480 c 1
 122 480 l 1
 138 553 153 593 179 628 c 0
 219 681 275 709 342 709 c 0
 434 709 491 652 491 560 c 0xc8
 491 474 460 415 391 367 c 1
 437 339 455 306 455 249 c 0
 455 182 430 107 391 59 c 0
 349 6 288 -23 217 -23 c 0
 114 -23 58 36 58 143 c 0
 58 161 59 176 62 206 c 1
 134 206 l 1
 133 193 l 2
 131 176 130 163 130 154 c 0
 130 93 168 54 227 54 c 0
 318 54 383 129 383 235 c 0
 383 293 343 327 275 327 c 0
 263 327 254 327 238 325 c 1xf0
EndSplineSet
EndChar

StartChar: four
Encoding: 52 52 130
Width: 456
Flags: MW
HStem: 0 20 170 78<130 297 130 369 383 456>
LayerCount: 2
Fore
SplineSet
297 170 m 1
 52 170 l 1
 68 262 l 1
 410 709 l 1
 463 709 l 1
 383 248 l 1
 470 248 l 1
 456 170 l 1
 369 170 l 1
 340 0 l 1
 268 0 l 1
 297 170 l 1
311 248 m 1
 365 556 l 1
 130 248 l 1
 311 248 l 1
EndSplineSet
EndChar

StartChar: five
Encoding: 53 53 131
Width: 456
Flags: MW
HStem: -23 77<199 259> 390 77<292 321.5> 622 87<255 501 255 255>
VStem: 393 72<259 308>
LayerCount: 2
Fore
SplineSet
515 709 m 1
 501 622 l 1
 255 622 l 1
 197 424 l 1
 238 454 272 467 312 467 c 0
 404 467 465 399 465 295 c 0
 465 223 442 144 405 87 c 0
 355 12 297 -23 221 -23 c 0
 170 -23 127 -6 97 26 c 0
 69 56 57 93 57 152 c 2
 57 162 l 1
 57 174 l 1
 129 174 l 1
 132 94 166 54 232 54 c 0
 324 54 393 146 393 270 c 0
 393 346 355 390 288 390 c 0
 241 390 217 377 167 323 c 1
 101 323 l 1
 212 709 l 1
 515 709 l 1
EndSplineSet
EndChar

StartChar: six
Encoding: 54 54 132
Width: 456
Flags: MW
HStem: -23 77<216.5 269> 365 77<291 326.5> 632 77<319 355.5>
VStem: 76 72<138.5 227.5 138.5 232.5> 392 72<239 288.5>
LayerCount: 2
Fore
SplineSet
500 524 m 1
 428 524 l 1
 429 527 429 529 429 529 c 1
 428 536 428 536 424 561 c 0
 420 588 414 600 396 614 c 0
 382 626 365 632 346 632 c 0
 262 632 195 527 171 358 c 1
 217 415 264 442 318 442 c 0
 406 442 464 374 464 270 c 0
 464 208 441 135 406 81 c 0
 360 12 303 -23 235 -23 c 0
 137 -23 76 50 76 167 c 0
 76 298 116 475 166 568 c 1
 218 662 281 709 357 709 c 0
 444 709 501 647 501 551 c 0
 501 545 501 535 500 524 c 1
299 365 m 0
 215 365 148 281 148 174 c 0
 148 103 188 54 245 54 c 0
 326 54 392 145 392 256 c 0
 392 321 354 365 299 365 c 0
EndSplineSet
EndChar

StartChar: seven
Encoding: 55 55 133
Width: 456
Flags: MW
HStem: 0 20 622 87<160 459 145 550>
LayerCount: 2
Fore
SplineSet
550 709 m 1
 536 628 l 1
 396 461 246 187 192 0 c 1
 112 0 l 1
 186 211 274 369 459 622 c 1
 145 622 l 1
 160 709 l 1
 550 709 l 1
EndSplineSet
EndChar

StartChar: eight
Encoding: 56 56 134
Width: 456
Flags: W
HStem: -23 77<205.5 264> 334 74<270.5 314.5> 632 77<314.5 362>
VStem: 61 72<128.5 196> 139 72<465 508.5> 388 72<210.5 258.5> 424 72<539.5 572>
LayerCount: 2
Fore
SplineSet
405 383 m 1xfa
 391 373 l 1
 437 341 460 296 460 239 c 0xe4
 460 182 437 116 401 68 c 0
 355 7 298 -23 230 -23 c 0
 127 -23 61 43 61 145 c 0
 61 247 105 325 191 373 c 1
 182 383 l 1
 147 418 139 436 139 479 c 0
 139 538 158 592 195 636 c 0
 237 686 283 709 346 709 c 0
 399 709 438 692 464 657 c 0
 484 631 496 595 496 561 c 0
 496 518 482 471 460 436 c 0
 447 416 438 408 405 383 c 1xfa
335 632 m 0xea
 262 632 211 574 211 491 c 0
 211 439 243 408 298 408 c 0
 342 408 376 426 399 461 c 0
 413 483 424 520 424 546 c 0
 424 598 389 632 335 632 c 0xea
283 334 m 0xf4
 199 334 133 257 133 160 c 0
 133 97 175 54 236 54 c 0
 321 54 388 130 388 226 c 0
 388 291 346 334 283 334 c 0xf4
EndSplineSet
EndChar

StartChar: nine
Encoding: 57 57 135
Width: 456
Flags: W
HStem: -23 77<196.5 237.5> 244 77<238.5 266> 632 77<294.5 349>
VStem: 68 72<124.5 138.5> 103 72<399.5 447> 419 72<494.5 548.5>
LayerCount: 2
Fore
SplineSet
69 162 m 1xf4
 140 162 l 1
 140 155 l 2xf4
 140 94 172 54 221 54 c 0
 304 54 362 144 394 324 c 1
 370 299 360 288 348 279 c 1
 323 257 284 244 248 244 c 0
 160 244 103 311 103 417 c 0xe8
 103 477 124 547 159 605 c 0
 200 673 259 709 330 709 c 0
 427 709 491 636 491 526 c 0
 491 463 475 346 455 256 c 0
 433 161 405 101 357 49 c 0
 312 1 264 -23 211 -23 c 0
 124 -23 68 39 68 136 c 0
 68 141 68 151 69 162 c 1xf4
321 632 m 0
 242 632 175 542 175 435 c 0xe8
 175 364 210 321 267 321 c 0
 352 321 419 407 419 515 c 0
 419 582 377 632 321 632 c 0
EndSplineSet
EndChar

StartChar: zero
Encoding: 48 48 136
Width: 456
Flags: MW
HStem: -23 77<209 260.5> 632 77<309 359.5>
VStem: 80 72<142 227.5 142 244.5> 418 72<458.5 544>
LayerCount: 2
Fore
SplineSet
342 709 m 0
 435 709 490 637 490 516 c 0
 490 366 449 186 394 92 c 0
 347 13 295 -23 226 -23 c 0
 136 -23 80 51 80 169 c 0
 80 320 121 502 176 594 c 0
 222 672 276 709 342 709 c 0
333 632 m 0
 279 632 239 590 207 502 c 0
 177 418 152 273 152 182 c 0
 152 102 183 54 235 54 c 0
 289 54 329 95 363 186 c 0
 392 266 418 413 418 504 c 0
 418 584 386 632 333 632 c 0
EndSplineSet
EndChar

StartChar: sterling
Encoding: 163 163 137
Width: 456
Flags: W
HStem: -23 93<336 349> -14 20 321 55<88 156 88 170 78 156 244 357 244 244> 652 77<308.5 377>
VStem: 131 79<478 537 478 545.5> 179 68<274.5 277.5> 443 72<568 583.5>
LayerCount: 2
Fore
SplineSet
366 376 m 1x7a
 357 321 l 1
 244 321 l 1
 245 310 l 2
 246 296 247 286 247 284 c 0
 247 265 241 235 232 210 c 0
 215 161 199 141 138 86 c 1
 111 61 l 1
 157 89 189 100 221 100 c 0
 239 100 245 99 264 91 c 0
 300 76 325 70 347 70 c 0
 374 70 390 76 425 101 c 1
 445 31 l 1
 410 -4 369 -23 329 -23 c 0xa4
 299 -23 270 -14 215 12 c 0
 198 20 182 23 163 23 c 0
 133 23 105 12 66 -14 c 1
 36 52 l 1
 132 129 179 201 179 271 c 0x74
 179 284 178 291 170 321 c 1
 78 321 l 1
 88 376 l 1
 156 376 l 1
 153 383 151 390 148 398 c 0
 134 439 131 455 131 481 c 0
 131 610 241 729 362 729 c 0
 454 729 515 669 515 579 c 0
 515 557 514 542 507 497 c 1
 435 497 l 1
 441 525 443 537 443 554 c 0
 443 613 406 652 348 652 c 0
 269 652 210 583 210 491 c 0
 210 465 210 465 228 404 c 0
 231 394 233 385 235 376 c 1
 366 376 l 1x7a
EndSplineSet
EndChar

StartChar: dollar
Encoding: 36 36 138
Width: 456
Flags: W
VStem: 57 68<122.5 145.5> 125 68<477 502.5> 392 72<206.5 234.5> 435 68<556.5 581.5>
LayerCount: 2
Fore
SplineSet
334 770 m 1xe0
 383 770 l 1
 373 716 l 1
 455 711 503 655 503 565 c 0
 503 548 502 539 498 519 c 1
 433 519 l 1
 435 547 435 548 435 555 c 0x50
 435 608 406 643 361 646 c 1
 318 397 l 1
 387 371 400 364 420 347 c 0
 450 321 464 289 464 244 c 0
 464 169 436 87 395 43 c 0
 358 3 304 -21 245 -23 c 1
 227 -126 l 1
 178 -126 l 1
 196 -23 l 1
 100 -5 57 43 57 134 c 0
 57 157 59 175 64 208 c 1
 128 208 l 1
 126 175 125 162 125 150 c 0
 125 95 148 67 208 46 c 1
 256 318 l 1
 194 344 177 353 159 373 c 0
 136 398 125 430 125 469 c 0
 125 536 150 609 187 650 c 0
 220 687 269 711 325 716 c 1
 334 770 l 1xe0
271 405 m 1
 313 645 l 1
 244 638 193 577 193 501 c 0
 193 453 215 426 271 405 c 1
302 309 m 1x20
 257 46 l 1
 302 50 332 65 356 94 c 0
 378 121 392 167 392 211 c 0
 392 258 368 285 302 309 c 1x20
EndSplineSet
EndChar

StartChar: cent
Encoding: 162 162 139
Width: 456
Flags: MW
VStem: 79 72<147.5 225.5 147.5 228.5> 409 71<348 430.5 391 397>
LayerCount: 2
Fore
SplineSet
334 463 m 1
 263 53 l 1
 321 61 355 97 382 180 c 1
 450 180 l 1
 422 49 359 -15 249 -23 c 1
 232 -120 l 1
 200 -120 l 1
 217 -22 l 1
 132 -11 79 64 79 171 c 0
 79 286 116 400 176 467 c 0
 213 509 256 531 314 538 c 1
 330 628 l 1
 363 628 l 1
 347 538 l 1
 353 538 l 1
 355 538 l 2
 420 538 480 468 480 393 c 0
 480 389 479 378 478 363 c 1
 478 348 l 1
 409 348 l 1
 409 371 l 2
 409 423 388 452 344 461 c 2
 334 463 l 1
230 56 m 1
 301 460 l 1
 269 453 248 440 227 415 c 0
 181 361 151 269 151 182 c 0
 151 113 181 64 230 56 c 1
EndSplineSet
EndChar

StartChar: florin
Encoding: 402 402 140
Width: 456
Flags: MW
HStem: -212 77<35.5 63> 392 72<197 277 185 300 373 453 197 349> 661 77<474.5 501>
LayerCount: 2
Fore
SplineSet
465 464 m 1
 453 392 l 1
 349 392 l 1
 219 -5 l 2
 173 -147 109 -212 17 -212 c 0
 -2 -212 -12 -210 -26 -202 c 1
 3 -116 l 1
 17 -130 27 -135 44 -135 c 0
 85 -135 116 -99 141 -21 c 2
 277 392 l 1
 185 392 l 1
 197 464 l 1
 300 464 l 1
 335 567 l 2
 370 671 439 738 510 738 c 0
 531 738 550 732 571 719 c 1
 533 641 l 1
 517 656 508 661 494 661 c 0
 455 661 421 617 395 533 c 2
 373 464 l 1
 465 464 l 1
EndSplineSet
EndChar

StartChar: Euro
Encoding: 8364 8364 141
Width: 456
Flags: MW
HStem: -22 78<250.5 291> 254 59<81 114 52 120 193 343> 379 59<103 132 74 148 222 406 103 205> 633 76<351.5 403.5>
VStem: 113 75<178 219>
LayerCount: 2
Fore
SplineSet
222 438 m 1
 436 438 l 1
 406 379 l 1
 205 379 l 1
 198 349 197 344 193 313 c 1
 373 313 l 1
 343 254 l 1
 188 254 l 1
 188 241 l 2
 188 115 218 56 283 56 c 0
 322 56 350 68 421 117 c 1
 405 24 l 1
 361 -7 316 -22 266 -22 c 0
 165 -22 113 59 113 219 c 1
 114 254 l 1
 52 254 l 1
 81 313 l 1
 120 313 l 1
 121 326 126 350 132 379 c 1
 74 379 l 1
 103 438 l 1
 148 438 l 1
 203 613 292 709 400 709 c 0
 455 709 495 690 538 642 c 1
 498 562 l 1
 453 614 423 633 384 633 c 0
 319 633 260 563 223 442 c 0
 223 440 223 440 222 438 c 1
EndSplineSet
EndChar

StartChar: yen
Encoding: 165 165 142
Width: 456
Flags: MW
HStem: 0 20 175 51<91 225 82 234 306 438> 303 51<113 239 113 247 104 239 344 461>
LayerCount: 2
Fore
SplineSet
470 354 m 1
 461 303 l 1
 320 303 l 1
 306 226 l 1
 447 226 l 1
 438 175 l 1
 297 175 l 1
 267 0 l 1
 194 0 l 1
 225 175 l 1
 82 175 l 1
 91 226 l 1
 234 226 l 1
 247 303 l 1
 104 303 l 1
 113 354 l 1
 239 354 l 1
 133 709 l 1
 203 709 l 1
 298 387 l 1
 501 709 l 1
 571 709 l 1
 344 354 l 1
 470 354 l 1
EndSplineSet
EndChar

StartChar: onesuperior
Encoding: 185 185 143
Width: 273
Flags: W
LayerCount: 2
Fore
SplineSet
225 580 m 1
 145 580 l 1
 153 626 l 1
 228 638 236 644 263 709 c 1
 299 709 l 1
 225 284 l 1
 173 284 l 1
 225 580 l 1
EndSplineSet
EndChar

StartChar: twosuperior
Encoding: 178 178 144
Width: 273
Flags: MW
HStem: 284 60<126 305> 654 55<229 268.5>
VStem: 308 53<577 612>
LayerCount: 2
Fore
SplineSet
315 344 m 1
 305 284 l 1
 59 284 l 1
 82 385 105 417 194 472 c 1
 246 503 l 2
 284 525 308 560 308 594 c 0
 308 630 285 654 252 654 c 0
 206 654 179 623 166 555 c 1
 114 555 l 1
 134 662 179 709 260 709 c 0
 322 709 361 668 361 603 c 0
 361 543 327 493 259 452 c 2
 203 419 l 2
 159 392 140 374 126 344 c 1
 315 344 l 1
EndSplineSet
EndChar

StartChar: threesuperior
Encoding: 179 179 145
Width: 273
Flags: W
HStem: 270 55<170 213 170 221.5> 654 55<232.5 261.5>
VStem: 77 53<364 379> 276 53<395.5 440.5> 296 53<591.5 621>
LayerCount: 2
Fore
SplineSet
186 474 m 1xf0
 195 527 l 1
 205 527 l 1
 208 527 l 2
 268 527 296 552 296 606 c 0
 296 636 277 654 246 654 c 0
 218 654 195 641 182 618 c 0
 175 606 172 594 166 565 c 1
 114 565 l 1
 124 614 134 638 151 660 c 0
 176 692 211 709 254 709 c 0
 313 709 349 674 349 617 c 0xc8
 349 566 334 536 293 504 c 1
 318 489 329 467 329 434 c 0
 329 341 264 270 179 270 c 0
 113 270 77 307 77 373 c 0
 77 385 78 393 80 414 c 1
 132 414 l 1
 131 402 l 2
 130 392 130 385 130 381 c 0
 130 347 153 325 187 325 c 0
 239 325 276 366 276 425 c 0
 276 456 252 475 212 475 c 0
 204 475 199 475 186 474 c 1xf0
EndSplineSet
EndChar

StartChar: period
Encoding: 46 46 146
Width: 228
Flags: MW
HStem: 0 103<89 156 71 174>
LayerCount: 2
Fore
SplineSet
174 103 m 1
 156 0 l 1
 71 0 l 1
 89 103 l 1
 174 103 l 1
EndSplineSet
EndChar

StartChar: colon
Encoding: 58 58 147
Width: 228
Flags: MW
HStem: 0 103<108 175 90 193> 421 103<182 249 164 267>
LayerCount: 2
Fore
SplineSet
193 103 m 1
 175 0 l 1
 90 0 l 1
 108 103 l 1
 193 103 l 1
267 524 m 1
 249 421 l 1
 164 421 l 1
 182 524 l 1
 267 524 l 1
EndSplineSet
EndChar

StartChar: periodcentered
Encoding: 183 183 148
Width: 228
Flags: MW
HStem: 192 103<154 222 136 240>
LayerCount: 2
Fore
SplineSet
240 295 m 1
 222 192 l 1
 136 192 l 1
 154 295 l 1
 240 295 l 1
EndSplineSet
EndChar

StartChar: middot
Encoding: 183 183 149
Width: 228
Flags: MW
HStem: 192 103<154 222 136 240>
LayerCount: 2
Fore
SplineSet
240 295 m 1
 222 192 l 1
 136 192 l 1
 154 295 l 1
 240 295 l 1
EndSplineSet
EndChar

StartChar: ellipsis
Encoding: 8230 8230 150
Width: 820
Flags: MW
HStem: 0 103<112 179 94 197 385 452 658 725>
LayerCount: 2
Fore
SplineSet
197 103 m 1
 179 0 l 1
 94 0 l 1
 112 103 l 1
 197 103 l 1
470 103 m 1
 452 0 l 1
 367 0 l 1
 385 103 l 1
 470 103 l 1
743 103 m 1
 725 0 l 1
 640 0 l 1
 658 103 l 1
 743 103 l 1
EndSplineSet
EndChar

StartChar: comma
Encoding: 44 44 151
Width: 228
Flags: MW
HStem: 0 103<89 120 71 175>
LayerCount: 2
Fore
SplineSet
89 103 m 1
 175 103 l 1
 154 -16 l 2
 140 -101 99 -150 45 -147 c 1
 52 -109 l 1
 91 -109 108 -82 120 0 c 1
 71 0 l 1
 89 103 l 1
EndSplineSet
EndChar

StartChar: semicolon
Encoding: 59 59 152
Width: 228
Flags: MW
HStem: 0 103<108 139 90 194> 421 103<181 248 163 267>
LayerCount: 2
Fore
SplineSet
267 524 m 1
 248 421 l 1
 163 421 l 1
 181 524 l 1
 267 524 l 1
108 103 m 1
 194 103 l 1
 173 -16 l 2
 159 -101 118 -150 64 -147 c 1
 71 -109 l 1
 110 -109 127 -82 139 0 c 1
 90 0 l 1
 108 103 l 1
EndSplineSet
EndChar

StartChar: quoteleft
Encoding: 8216 8216 153
Width: 182
Flags: MW
HStem: 477 103<189 210 134 228>
LayerCount: 2
Fore
SplineSet
210 477 m 1
 134 477 l 1
 152 577 l 2
 166 658 202 705 253 709 c 1
 246 670 l 1
 215 666 199 640 189 580 c 1
 228 580 l 1
 210 477 l 1
EndSplineSet
EndChar

StartChar: quotedblright
Encoding: 8221 8221 154
Width: 273
Flags: MW
HStem: 605 103<163 185 145 240 163 275 294 315>
LayerCount: 2
Fore
SplineSet
163 708 m 1
 240 708 l 1
 223 608 l 2
 209 529 173 481 123 477 c 1
 130 515 l 1
 159 520 176 547 185 605 c 1
 145 605 l 1
 163 708 l 1
294 708 m 1
 371 708 l 1
 353 608 l 2
 339 529 303 481 253 477 c 1
 260 515 l 1
 290 520 307 547 315 605 c 1
 275 605 l 1
 294 708 l 1
EndSplineSet
EndChar

StartChar: quotedblleft
Encoding: 8220 8220 155
Width: 273
Flags: MW
HStem: 477 103<175 196 120 214 175 252 307 328>
LayerCount: 2
Fore
SplineSet
196 477 m 1
 120 477 l 1
 138 577 l 1
 151 657 187 704 237 709 c 1
 230 670 l 1
 201 665 185 639 175 580 c 1
 214 580 l 1
 196 477 l 1
328 477 m 1
 252 477 l 1
 269 577 l 2
 283 657 319 704 368 709 c 1
 362 670 l 1
 333 666 316 637 307 580 c 1
 346 580 l 1
 328 477 l 1
EndSplineSet
EndChar

StartChar: quotedblbase
Encoding: 8222 8222 156
Width: 273
Flags: MW
HStem: 0 103<56 78 38 133 56 168 187 208>
LayerCount: 2
Fore
SplineSet
56 103 m 1
 133 103 l 1
 116 3 l 2
 102 -76 66 -124 16 -128 c 1
 23 -90 l 1
 52 -85 69 -58 78 0 c 1
 38 0 l 1
 56 103 l 1
187 103 m 1
 264 103 l 1
 246 3 l 2
 232 -76 196 -124 146 -128 c 1
 153 -90 l 1
 183 -85 200 -58 208 0 c 1
 168 0 l 1
 187 103 l 1
EndSplineSet
EndChar

StartChar: exclam
Encoding: 33 33 157
Width: 228
Flags: MW
HStem: 0 103<120 171 102 189> 709 20<229 298 298 298>
LayerCount: 2
Fore
SplineSet
298 729 m 1
 237 379 l 1
 182 168 l 1
 149 168 l 1
 168 379 l 1
 229 729 l 1
 298 729 l 1
189 103 m 1
 171 0 l 1
 102 0 l 1
 120 103 l 1
 189 103 l 1
EndSplineSet
EndChar

StartChar: exclamdown
Encoding: 161 161 158
Width: 273
Flags: MW
HStem: 421 103<173 260 191 242>
LayerCount: 2
Fore
SplineSet
62 -205 m 1
 123 145 l 1
 178 356 l 1
 210 356 l 1
 192 145 l 1
 131 -205 l 1
 62 -205 l 1
173 421 m 1
 191 524 l 1
 260 524 l 1
 242 421 l 1
 173 421 l 1
EndSplineSet
EndChar

StartChar: question
Encoding: 63 63 159
Width: 456
Flags: MW
HStem: 0 103<214 270 196 288> 664 77<314.5 377>
VStem: 438 79<551.5 603>
LayerCount: 2
Fore
SplineSet
305 199 m 1
 231 199 l 1
 240 254 l 1
 252 315 264 333 352 417 c 1
 415 479 438 522 438 577 c 0
 438 629 403 664 351 664 c 0
 278 664 239 617 221 507 c 1
 151 507 l 1
 176 662 250 741 368 741 c 0
 414 741 448 729 473 704 c 1
 500 675 517 633 517 590 c 0
 517 513 482 448 398 370 c 1
 337 315 324 296 313 246 c 1
 305 199 l 1
288 103 m 1
 270 0 l 1
 196 0 l 1
 214 103 l 1
 288 103 l 1
EndSplineSet
EndChar

StartChar: questiondown
Encoding: 191 191 160
Width: 501
Flags: MW
HStem: -217 77<209 272 209 277> 421 103<298 390 316 372>
VStem: 70 78<-79.5 -49>
LayerCount: 2
Fore
SplineSet
281 325 m 1
 355 325 l 1
 346 270 l 1
 334 209 319 187 233 107 c 1
 174 50 148 1 148 -53 c 0
 148 -106 182 -140 236 -140 c 0
 308 -140 347 -93 365 17 c 1
 435 17 l 1
 410 -137 336 -217 218 -217 c 0
 172 -217 138 -205 113 -179 c 0
 86 -152 70 -112 70 -72 c 0
 70 -26 86 26 112 68 c 0
 128 94 149 118 188 154 c 0
 249 209 262 228 273 278 c 1
 281 325 l 1
298 421 m 1
 316 524 l 1
 390 524 l 1
 372 421 l 1
 298 421 l 1
EndSplineSet
EndChar

StartChar: guillemotright
Encoding: 187 187 161
Width: 456
Flags: W
LayerCount: 2
Fore
SplineSet
261 317 m 1
 246 228 l 1
 99 106 l 1
 114 189 l 1
 215 273 l 1
 142 356 l 1
 157 438 l 1
 261 317 l 1
425 317 m 1
 409 228 l 1
 262 106 l 1
 277 189 l 1
 378 273 l 1
 306 356 l 1
 320 438 l 1
 425 317 l 1
EndSplineSet
EndChar

StartChar: guillemotleft
Encoding: 171 171 162
Width: 456
Flags: W
LayerCount: 2
Fore
SplineSet
121 227 m 1
 136 316 l 1
 282 438 l 1
 267 355 l 1
 167 271 l 1
 238 188 l 1
 224 106 l 1
 121 227 l 1
289 227 m 1
 305 316 l 1
 450 438 l 1
 435 355 l 1
 336 271 l 1
 406 188 l 1
 392 106 l 1
 289 227 l 1
EndSplineSet
EndChar

StartChar: guilsinglright
Encoding: 8250 8250 163
Width: 273
Flags: W
LayerCount: 2
Fore
SplineSet
251 317 m 1
 236 228 l 1
 89 106 l 1
 104 189 l 1
 205 273 l 1
 132 356 l 1
 147 438 l 1
 251 317 l 1
EndSplineSet
EndChar

StartChar: guilsinglleft
Encoding: 8249 8249 164
Width: 273
Flags: W
LayerCount: 2
Fore
SplineSet
115 227 m 1
 130 316 l 1
 276 438 l 1
 261 355 l 1
 161 271 l 1
 232 188 l 1
 218 106 l 1
 115 227 l 1
EndSplineSet
EndChar

StartChar: slash
Encoding: 47 47 165
Width: 228
Flags: MW
HStem: -20 20 709 20<310 356 356 356>
LayerCount: 2
Fore
SplineSet
310 729 m 1
 356 729 l 1
 35 -20 l 1
 -10 -20 l 1
 310 729 l 1
EndSplineSet
EndChar

StartChar: hyphen
Encoding: 45 45 166
Width: 273
Flags: MW
HStem: 240 72<93 276 80 288>
LayerCount: 2
Fore
SplineSet
288 312 m 1
 276 240 l 1
 80 240 l 1
 93 312 l 1
 288 312 l 1
EndSplineSet
EndChar

StartChar: sfthyphen
Encoding: 173 173 167
Width: 273
Flags: MW
HStem: 240 72<93 276 80 288>
LayerCount: 2
Fore
SplineSet
288 312 m 1
 276 240 l 1
 80 240 l 1
 93 312 l 1
 288 312 l 1
EndSplineSet
EndChar

StartChar: endash
Encoding: 8211 8211 168
Width: 456
Flags: MW
HStem: 240 72<51 503 38 515>
LayerCount: 2
Fore
SplineSet
515 312 m 1
 503 240 l 1
 38 240 l 1
 51 312 l 1
 515 312 l 1
EndSplineSet
EndChar

StartChar: emdash
Encoding: 8212 8212 169
Width: 820
Flags: MW
HStem: 240 72<47 863 34 875>
LayerCount: 2
Fore
SplineSet
875 312 m 1
 863 240 l 1
 34 240 l 1
 47 312 l 1
 875 312 l 1
EndSplineSet
EndChar

StartChar: parenleft
Encoding: 40 40 170
Width: 273
Flags: MW
HStem: -213 20 709 20<321 366 366 366>
VStem: 93 64<56 190>
LayerCount: 2
Fore
SplineSet
321 729 m 1
 366 729 l 1
 229 525 157 301 157 79 c 0
 157 -24 171 -117 202 -213 c 1
 157 -213 l 1
 117 -126 93 -4 93 116 c 0
 93 319 178 549 321 729 c 1
EndSplineSet
EndChar

StartChar: parenright
Encoding: 41 41 171
Width: 273
Flags: MW
HStem: -213 20 709 20<158 203 203 203>
VStem: 203 63<340 465 340 484.5>
LayerCount: 2
Fore
SplineSet
39 -213 m 1
 -6 -213 l 1
 130 -12 203 215 203 430 c 0
 203 539 189 632 158 729 c 1
 203 729 l 1
 242 645 266 523 266 407 c 0
 266 273 238 149 177 15 c 0
 139 -68 92 -146 39 -213 c 1
EndSplineSet
EndChar

StartChar: bracketleft
Encoding: 91 91 172
Width: 228
Flags: MW
HStem: -213 72<97 169> 657 72<237 320 237 237>
LayerCount: 2
Fore
SplineSet
333 729 m 1
 320 657 l 1
 237 657 l 1
 97 -141 l 1
 181 -141 l 1
 169 -213 l 1
 16 -213 l 1
 180 729 l 1
 333 729 l 1
EndSplineSet
EndChar

StartChar: bracketright
Encoding: 93 93 173
Width: 228
Flags: MW
HStem: -213 72<-19 78 -7 78 -7 134> 657 72<145 217 133 298>
LayerCount: 2
Fore
SplineSet
-19 -213 m 1
 -7 -141 l 1
 78 -141 l 1
 217 657 l 1
 133 657 l 1
 145 729 l 1
 298 729 l 1
 134 -213 l 1
 -19 -213 l 1
EndSplineSet
EndChar

StartChar: ampersand
Encoding: 38 38 174
Width: 547
Flags: MW
HStem: -23 77<201.5 240.5> 639 70<334 375.5>
VStem: 68 72<126.5 169.5> 202 68<520 562> 414 68<549 594>
LayerCount: 2
Fore
SplineSet
463 334 m 1
 528 334 l 1
 518 274 486 203 446 151 c 1
 520 0 l 1
 433 0 l 1
 395 78 l 1
 322 3 273 -23 208 -23 c 0
 121 -23 68 34 68 129 c 0
 68 210 100 279 163 335 c 1
 184 352 205 369 236 390 c 1
 234 396 231 404 229 413 c 1
 214 455 l 2
 206 478 202 500 202 521 c 0
 202 619 284 709 373 709 c 0
 440 709 482 662 482 587 c 0
 482 499 436 435 334 378 c 1
 414 215 l 1
 440 253 453 284 463 334 c 1
309 434 m 1
 314 437 315 437 322 442 c 0
 383 479 414 524 414 574 c 0
 414 614 393 639 358 639 c 0
 310 639 270 591 270 533 c 0
 270 507 276 491 309 434 c 1
367 137 m 1
 270 336 l 1
 178 275 140 224 140 159 c 0
 140 94 174 54 229 54 c 0
 270 54 308 77 367 137 c 1
EndSplineSet
EndChar

StartChar: section
Encoding: 167 167 175
Width: 456
Flags: W
HStem: -213 77<174.5 210.5 174.5 211> 652 77<320 364>
VStem: 52 72<-81 -64> 86 72<293 295> 182 75<541.5 579.5 541.5 589.5> 288 75<-36 -19.5> 387 72<245 245.5> 411 72<582.5 599>
LayerCount: 2
Fore
SplineSet
472 524 m 1xdd
 403 524 l 1
 409 545 411 557 411 575 c 0xd1
 411 623 385 652 343 652 c 0
 297 652 257 606 257 553 c 0
 257 530 263 518 291 491 c 2
 396 390 l 2
 448 340 459 317 459 266 c 0
 459 224 440 165 416 131 c 0
 398 105 371 84 338 71 c 1
 356 41 363 17 363 -15 c 0
 363 -57 345 -108 315 -146 c 1
 282 -190 237 -213 185 -213 c 0
 104 -213 52 -159 52 -74 c 0
 52 -54 54 -40 61 -14 c 1
 131 -14 l 1
 126 -36 124 -46 124 -59 c 0xee
 124 -103 154 -136 195 -136 c 0
 226 -136 252 -121 269 -94 c 0
 280 -75 288 -52 288 -34 c 0
 288 -5 279 14 256 38 c 2
 137 162 l 2
 100 201 86 231 86 274 c 0
 86 316 101 364 125 397 c 0
 144 423 154 431 203 463 c 1
 188 487 182 508 182 540 c 0
 182 639 265 729 358 729 c 0
 432 729 483 675 483 594 c 0
 483 571 482 567 473 533 c 1
 472 524 l 1xdd
194 229 m 2
 307 108 l 1
 359 140 387 184 387 231 c 0xc2
 387 260 370 296 343 322 c 2
 236 428 l 1
 178 388 158 357 158 309 c 0
 158 277 166 259 194 229 c 2
EndSplineSet
EndChar

StartChar: dagger
Encoding: 8224 8224 176
Width: 456
Flags: MW
HStem: 420 81<118 263 104 277 349 494 118 335>
LayerCount: 2
Fore
SplineSet
508 501 m 1
 494 420 l 1
 335 420 l 1
 231 -177 l 1
 159 -177 l 1
 263 420 l 1
 104 420 l 1
 118 501 l 1
 277 501 l 1
 313 709 l 1
 385 709 l 1
 349 501 l 1
 508 501 l 1
EndSplineSet
EndChar

StartChar: daggerdbl
Encoding: 8225 8225 177
Width: 456
Flags: MW
HStem: 31 81<56 198 42 212 284 427 56 270> 420 81<124 266 110 280 352 495 124 338>
LayerCount: 2
Fore
SplineSet
509 501 m 1
 495 420 l 1
 338 420 l 1
 284 112 l 1
 441 112 l 1
 427 31 l 1
 270 31 l 1
 234 -177 l 1
 162 -177 l 1
 198 31 l 1
 42 31 l 1
 56 112 l 1
 212 112 l 1
 266 420 l 1
 110 420 l 1
 124 501 l 1
 280 501 l 1
 316 709 l 1
 388 709 l 1
 352 501 l 1
 509 501 l 1
EndSplineSet
EndChar

StartChar: asterisk
Encoding: 42 42 178
Width: 319
Flags: MW
HStem: 514 20<254 254> 709 20<262 313 313 313>
LayerCount: 2
Fore
SplineSet
262 729 m 1
 313 729 l 1
 289 617 l 1
 379 655 l 1
 387 593 l 1
 294 566 l 1
 337 475 l 1
 290 438 l 1
 254 534 l 1
 187 439 l 1
 149 479 l 1
 225 567 l 1
 139 598 l 1
 164 657 l 1
 246 617 l 1
 262 729 l 1
EndSplineSet
EndChar

StartChar: quotesingle
Encoding: 39 39 179
Width: 157
Flags: W
LayerCount: 2
Fore
SplineSet
163 709 m 1
 240 709 l 1
 220 598 l 1
 175 464 l 1
 142 464 l 1
 143 598 l 1
 163 709 l 1
EndSplineSet
EndChar

StartChar: quotedbl
Encoding: 34 34 180
Width: 291
Flags: W
LayerCount: 2
Fore
SplineSet
166 709 m 1
 243 709 l 1
 223 598 l 1
 178 464 l 1
 145 464 l 1
 146 598 l 1
 166 709 l 1
296 709 m 1
 373 709 l 1
 354 598 l 1
 308 464 l 1
 275 464 l 1
 277 598 l 1
 296 709 l 1
EndSplineSet
EndChar

StartChar: at
Encoding: 64 64 181
Width: 832
Flags: W
HStem: -75 77<340 420.5> 120 72<593 618> 125 64<395 405> 511 64<500 535.5> 712 77<520.5 582>
VStem: 98 73<186 302.5> 279 75<248 296.5 248 335.5> 776 75<452 499.5>
LayerCount: 2
Fore
SplineSet
641 554 m 1x37
 709 554 l 1
 593 303 l 2
 582 280 575 250 575 230 c 0
 575 207 585 192 601 192 c 0
 690 192 776 328 776 467 c 0
 776 532 760 585 729 626 c 0
 689 677 616 712 548 712 c 0
 362 712 171 484 171 263 c 0
 171 109 270 2 410 2 c 0
 453 2 499 11 568 34 c 1
 579 -33 l 1
 518 -60 451 -75 390 -75 c 0
 223 -75 98 60 98 242 c 0
 98 363 156 511 247 618 c 0
 336 723 463 789 578 789 c 0
 662 789 746 745 796 675 c 1
 834 624 851 565 851 492 c 0
 851 412 828 337 781 261 c 0
 723 168 655 120 581 120 c 0xdf
 536 120 509 146 509 188 c 0
 509 191 509 193 510 197 c 1
 463 146 427 125 383 125 c 0
 319 125 279 178 279 261 c 0
 279 410 412 575 533 575 c 0
 559 575 582 565 596 547 c 0
 603 537 609 528 618 506 c 1
 641 554 l 1x37
518 511 m 0
 482 511 440 482 409 434 c 0
 376 383 354 320 354 273 c 0
 354 223 378 189 412 189 c 0x37
 446 189 487 222 515 272 c 0
 551 337 575 406 575 443 c 0
 575 485 553 511 518 511 c 0
EndSplineSet
EndChar

StartChar: numbersign
Encoding: 35 35 182
Width: 456
Flags: MW
HStem: -20 20 191 64<55 127 44 148 210 292 55 189 375 451> 439 64<129 207 117 228 129 270 290 372 455 521>
LayerCount: 2
Fore
SplineSet
518 697 m 1
 455 503 l 1
 532 503 l 1
 521 439 l 1
 435 439 l 1
 375 255 l 1
 462 255 l 1
 451 191 l 1
 354 191 l 1
 286 -20 l 1
 224 -20 l 1
 292 191 l 1
 189 191 l 1
 121 -20 l 1
 59 -20 l 1
 127 191 l 1
 44 191 l 1
 55 255 l 1
 148 255 l 1
 207 439 l 1
 117 439 l 1
 129 503 l 1
 228 503 l 1
 291 697 l 1
 353 697 l 1
 290 503 l 1
 393 503 l 1
 456 697 l 1
 518 697 l 1
372 439 m 1
 270 439 l 1
 210 255 l 1
 312 255 l 1
 372 439 l 1
EndSplineSet
EndChar

StartChar: degree
Encoding: 176 176 183
Width: 328
Flags: MW
HStem: 383 43<175.5 224 175.5 234> 643 43<176 224.5>
VStem: 76 37<505 565 505 576.5> 287 37<504 565.5>
LayerCount: 2
Fore
SplineSet
200 686 m 0
 269 686 324 619 324 535 c 0
 324 449 269 383 199 383 c 0
 132 383 76 452 76 535 c 0
 76 618 132 686 200 686 c 0
200 643 m 0
 152 643 113 595 113 535 c 0
 113 475 152 426 199 426 c 0
 249 426 287 473 287 535 c 0
 287 596 249 643 200 643 c 0
EndSplineSet
EndChar

StartChar: plus
Encoding: 43 43 184
Width: 479
Flags: MW
HStem: -10 20 197 70<41 211 41 211 268 438 41 268>
VStem: 211 57<-10 197 -10 197 267 474>
LayerCount: 2
Fore
SplineSet
438 267 m 1
 438 197 l 1
 268 197 l 1
 268 -10 l 1
 211 -10 l 1
 211 197 l 1
 41 197 l 1
 41 267 l 1
 211 267 l 1
 211 474 l 1
 268 474 l 1
 268 267 l 1
 438 267 l 1
EndSplineSet
EndChar

StartChar: minus
Encoding: 8722 8722 185
Width: 479
Flags: MW
HStem: 197 70<33 446 33 446>
LayerCount: 2
Fore
SplineSet
446 267 m 1
 446 197 l 1
 33 197 l 1
 33 267 l 1
 446 267 l 1
EndSplineSet
EndChar

StartChar: multiply
Encoding: 215 215 186
Width: 479
Flags: W
LayerCount: 2
Fore
SplineSet
359 427 m 1
 400 377 l 1
 280 231 l 1
 401 84 l 1
 360 34 l 1
 239 181 l 1
 119 35 l 1
 78 84 l 1
 198 231 l 1
 78 377 l 1
 119 426 l 1
 239 281 l 1
 359 427 l 1
EndSplineSet
EndChar

StartChar: divide
Encoding: 247 247 187
Width: 479
Flags: MW
HStem: 0 104<197 282 197 282> 201 70<41 438 41 438> 368 104<197 282 197 282>
VStem: 197 85<0 104 0 104 368 472>
LayerCount: 2
Fore
SplineSet
438 271 m 1
 438 201 l 1
 41 201 l 1
 41 271 l 1
 438 271 l 1
282 104 m 1
 282 0 l 1
 197 0 l 1
 197 104 l 1
 282 104 l 1
282 472 m 1
 282 368 l 1
 197 368 l 1
 197 472 l 1
 282 472 l 1
EndSplineSet
EndChar

StartChar: equal
Encoding: 61 61 188
Width: 479
Flags: MW
HStem: 111 70<41 438 41 438> 283 70<41 438 41 438>
LayerCount: 2
Fore
SplineSet
438 353 m 1
 438 283 l 1
 41 283 l 1
 41 353 l 1
 438 353 l 1
438 181 m 1
 438 111 l 1
 41 111 l 1
 41 181 l 1
 438 181 l 1
EndSplineSet
EndChar

StartChar: trademark
Encoding: 8482 8482 189
Width: 820
Flags: MW
HStem: 674 55<52 178 52 359 234 359 234 234>
VStem: 178 56<292 674 292 674> 402 55<292 633 292 729> 715 55<292 633 633 633>
LayerCount: 2
Fore
SplineSet
234 674 m 1
 234 292 l 1
 178 292 l 1
 178 674 l 1
 52 674 l 1
 52 729 l 1
 359 729 l 1
 359 674 l 1
 234 674 l 1
614 292 m 1
 556 292 l 1
 457 633 l 1
 457 292 l 1
 402 292 l 1
 402 729 l 1
 479 729 l 1
 587 367 l 1
 696 729 l 1
 770 729 l 1
 770 292 l 1
 715 292 l 1
 715 633 l 1
 614 292 l 1
EndSplineSet
EndChar

StartChar: paragraph
Encoding: 182 182 190
Width: 440
Flags: MW
HStem: 665 64<377 445 377 377 498 544 498 498>
LayerCount: 2
Fore
SplineSet
555 729 m 1
 544 665 l 1
 498 665 l 1
 351 -178 l 1
 298 -178 l 1
 445 665 l 1
 377 665 l 1
 230 -178 l 1
 178 -178 l 1
 254 259 l 1
 169 262 119 328 119 436 c 0
 119 588 230 729 350 729 c 2
 555 729 l 1
EndSplineSet
EndChar

StartChar: currency
Encoding: 164 164 191
Width: 456
Flags: W
HStem: 82 85<206.5 240.5> 411 85<207.5 241 207.5 250.5> 504 20<371 371> 509 20<80 80>
VStem: 49 72<268 310> 325 71<270.5 308.5 270.5 322>
LayerCount: 2
Fore
SplineSet
419 116 m 1x6c
 366 57 l 1
 317 118 l 1
 292 94 259 82 222 82 c 0
 191 82 156 94 134 112 c 1
 85 54 l 1
 34 116 l 1
 80 172 l 1
 60 206 49 247 49 289 c 0
 49 331 61 376 80 408 c 1
 29 470 l 1
 80 529 l 1xdc
 131 466 l 1
 133 467 135 469 138 471 c 0
 159 486 192 496 223 496 c 0
 259 496 289 486 316 463 c 1
 371 524 l 1
 423 460 l 1
 371 397 l 1
 387 367 396 327 396 290 c 0
 396 251 386 212 369 178 c 1
 419 116 l 1x6c
222 411 m 0
 165 411 121 358 121 289 c 0
 121 221 166 167 223 167 c 0
 277 167 325 223 325 288 c 0
 325 356 279 411 222 411 c 0
EndSplineSet
EndChar

StartChar: quotesinglbase
Encoding: 8218 8218 192
Width: 182
Flags: MW
HStem: 0 103<70 92 52 147>
LayerCount: 2
Fore
SplineSet
70 103 m 1
 147 103 l 1
 130 3 l 2
 116 -76 80 -124 30 -128 c 1
 37 -90 l 1
 66 -85 83 -58 92 0 c 1
 52 0 l 1
 70 103 l 1
EndSplineSet
EndChar

StartChar: quoteright
Encoding: 8217 8217 193
Width: 182
Flags: MW
HStem: 605 103<176 198 158 253>
LayerCount: 2
Fore
SplineSet
176 708 m 1
 253 708 l 1
 236 608 l 2
 222 529 186 481 136 477 c 1
 143 515 l 1
 172 520 189 547 198 605 c 1
 158 605 l 1
 176 708 l 1
EndSplineSet
EndChar

StartChar: braceleft
Encoding: 123 123 194
Width: 274
Flags: W
HStem: -213 20 709 20<315 354 354 354>
VStem: 81 63<-160 -109> 122 62<150 171.5>
LayerCount: 2
Fore
SplineSet
354 729 m 1xd0
 342 664 l 1
 329 664 l 2
 289 664 275 649 265 597 c 2
 233 416 l 1
 222 345 191 289 145 259 c 1
 175 234 184 212 184 161 c 0xd0
 184 139 182 119 179 100 c 2
 147 -81 l 2
 145 -93 144 -104 144 -114 c 0
 144 -138 157 -148 188 -148 c 2
 201 -148 l 1
 190 -213 l 1
 151 -213 l 2
 107 -213 81 -185 81 -135 c 0xe0
 81 -117 83 -99 86 -81 c 2
 114 85 l 2
 119 111 122 138 122 151 c 0
 122 192 106 217 75 223 c 1
 87 293 l 1
 135 303 160 342 174 431 c 1
 204 597 l 2
 219 682 258 729 315 729 c 2
 354 729 l 1xd0
EndSplineSet
EndChar

StartChar: braceright
Encoding: 125 125 195
Width: 274
Flags: W
HStem: -213 20 709 20<151 190 190 210.5>
VStem: 157 62<340.5 369 340.5 372> 197 63<639.5 642>
LayerCount: 2
Fore
SplineSet
-13 -213 m 1xe0
 -2 -148 l 1
 12 -148 l 2
 52 -148 66 -133 76 -81 c 2
 108 100 l 1
 122 190 142 226 196 257 c 1
 169 287 157 318 157 363 c 0xe0
 157 381 158 398 162 416 c 2
 194 597 l 2
 196 609 197 621 197 630 c 0
 197 654 184 664 153 664 c 2
 140 664 l 1
 151 729 l 1
 190 729 l 2
 231 729 260 696 260 647 c 0xd0
 260 632 258 615 255 597 c 2
 226 431 l 2
 221 400 219 379 219 359 c 0
 219 322 236 299 266 293 c 1
 254 223 l 1
 207 214 178 169 167 85 c 1
 137 -81 l 2
 121 -172 86 -213 26 -213 c 2
 -13 -213 l 1xe0
EndSplineSet
EndChar

StartChar: ordfeminine
Encoding: 170 170 196
Width: 303
Flags: MW
HStem: 303 51<97 324 88 333> 399 50<189.5 207> 691 51<255 271.5>
VStem: 112 49<473.5 494.5 473.5 498>
LayerCount: 2
Fore
SplineSet
333 354 m 1
 324 303 l 1
 88 303 l 1
 97 354 l 1
 333 354 l 1
355 449 m 1
 347 405 l 1
 339 403 l 2
 325 399 324 399 317 399 c 0
 294 399 281 414 279 442 c 1
 254 414 224 399 190 399 c 0
 139 399 112 427 112 479 c 0
 112 517 126 547 153 568 c 0
 176 586 198 592 263 600 c 0
 299 605 304 608 310 633 c 2
 312 641 l 2
 313 647 314 653 314 656 c 0
 314 663 312 668 304 679 c 0
 300 685 280 691 263 691 c 0
 228 691 206 673 197 634 c 1
 151 634 l 1
 161 678 166 691 180 706 c 0
 202 730 234 742 276 742 c 0
 329 742 362 717 362 676 c 1
 361 658 l 1
 327 468 l 1
 327 461 l 2
 327 453 333 447 341 447 c 0
 342 447 345 447 348 448 c 2
 355 449 l 1
290 515 m 2
 298 566 l 1
 284 560 276 558 256 555 c 0
 209 547 198 544 184 533 c 0
 170 523 161 503 161 486 c 0
 161 461 175 449 204 449 c 0
 241 449 284 482 290 515 c 2
EndSplineSet
EndChar

StartChar: ordmasculine
Encoding: 186 186 197
Width: 299
Flags: MW
HStem: 303 51<102 309 93 318> 399 52<208.5 238.5> 690 52<240 283.5>
VStem: 122 49<501.5 571.5 501.5 577.5> 321 49<600.5 639.5>
LayerCount: 2
Fore
SplineSet
318 354 m 1
 309 303 l 1
 93 303 l 1
 102 354 l 1
 318 354 l 1
275 742 m 0
 334 742 370 699 370 628 c 0
 370 573 353 506 328 467 c 1
 301 422 262 399 215 399 c 0
 159 399 122 443 122 509 c 0
 122 646 185 742 275 742 c 0
267 690 m 0
 213 690 171 618 171 525 c 0
 171 478 191 451 226 451 c 0
 279 451 321 524 321 617 c 0
 321 662 300 690 267 690 c 0
EndSplineSet
EndChar

StartChar: plusminus
Encoding: 177 177 198
Width: 479
Flags: MW
HStem: -11 70<41 438 41 438> 346 70<41 211 41 211 268 438 41 268>
VStem: 211 57<139 346 139 346 416 623>
LayerCount: 2
Fore
SplineSet
438 416 m 1
 438 346 l 1
 268 346 l 1
 268 139 l 1
 211 139 l 1
 211 346 l 1
 41 346 l 1
 41 416 l 1
 211 416 l 1
 211 623 l 1
 268 623 l 1
 268 416 l 1
 438 416 l 1
438 59 m 1
 438 -11 l 1
 41 -11 l 1
 41 59 l 1
 438 59 l 1
EndSplineSet
EndChar

StartChar: onehalf
Encoding: 189 189 199
Width: 684
Flags: MW
HStem: -20 20 0 60<510 689> 370 55<613 652.5>
VStem: 692 53<293 327.5>
LayerCount: 2
Fore
SplineSet
201 580 m 1xf0
 121 580 l 1
 129 626 l 1
 205 638 213 644 239 709 c 1
 276 709 l 1
 201 284 l 1
 149 284 l 1
 201 580 l 1xf0
616 709 m 1
 663 709 l 1
 167 -20 l 1
 119 -20 l 1
 616 709 l 1
699 60 m 1
 689 0 l 1
 443 0 l 1
 466 101 488 132 578 188 c 1
 630 219 l 2
 668 241 692 276 692 310 c 0
 692 345 669 370 636 370 c 0
 590 370 563 339 550 271 c 1
 498 271 l 1
 517 377 563 425 644 425 c 0
 705 425 745 383 745 319 c 0
 745 259 711 209 643 168 c 2
 587 135 l 2
 543 109 524 90 510 60 c 1
 699 60 l 1
EndSplineSet
EndChar

StartChar: onequarter
Encoding: 188 188 200
Width: 684
Flags: MW
HStem: -20 20 100 55<475 565 475 617 627 670>
LayerCount: 2
Fore
SplineSet
159 580 m 1
 79 580 l 1
 87 626 l 1
 162 638 170 644 197 709 c 1
 233 709 l 1
 159 284 l 1
 107 284 l 1
 159 580 l 1
582 709 m 1
 629 709 l 1
 132 -20 l 1
 85 -20 l 1
 582 709 l 1
565 100 m 1
 414 100 l 1
 425 160 l 1
 635 425 l 1
 674 425 l 1
 627 155 l 1
 680 155 l 1
 670 100 l 1
 617 100 l 1
 600 0 l 1
 548 0 l 1
 565 100 l 1
575 155 m 1
 603 316 l 1
 475 155 l 1
 575 155 l 1
EndSplineSet
EndChar

StartChar: threequarters
Encoding: 190 190 201
Width: 684
Flags: W
HStem: -20 20 100 55<478 568 478 620 630 674> 270 55<108 151 108 159.5> 654 55<170.5 199.5>
VStem: 15 53<364 379> 214 53<395.5 440.5> 234 53<591.5 621>
LayerCount: 2
Fore
SplineSet
124 474 m 1xfc
 133 527 l 1
 143 527 l 1
 146 527 l 2
 206 527 234 552 234 606 c 0
 234 636 215 654 184 654 c 0
 156 654 133 641 120 618 c 0
 113 606 110 594 104 565 c 1
 52 565 l 1
 62 614 72 638 89 660 c 0
 114 692 149 709 192 709 c 0
 251 709 287 674 287 617 c 0xf2
 287 566 272 536 231 504 c 1
 256 489 267 467 267 434 c 0
 267 341 202 270 117 270 c 0
 51 270 15 307 15 373 c 0
 15 385 16 393 18 414 c 1
 70 414 l 1
 69 402 l 2
 68 392 68 385 68 381 c 0
 68 347 91 325 125 325 c 0
 177 325 214 366 214 425 c 0
 214 456 190 475 150 475 c 0
 142 475 137 475 124 474 c 1xfc
601 709 m 1
 649 709 l 1
 152 -20 l 1
 104 -20 l 1
 601 709 l 1
568 100 m 1
 418 100 l 1
 428 160 l 1
 638 425 l 1
 677 425 l 1
 630 155 l 1
 683 155 l 1
 674 100 l 1
 620 100 l 1
 603 0 l 1
 551 0 l 1
 568 100 l 1
578 155 m 1
 606 316 l 1
 478 155 l 1
 578 155 l 1
EndSplineSet
EndChar

StartChar: fraction
Encoding: 8260 8260 202
Width: 137
Flags: MW
HStem: -20 20
LayerCount: 2
Fore
SplineSet
351 709 m 1
 398 709 l 1
 -98 -20 l 1
 -146 -20 l 1
 351 709 l 1
EndSplineSet
EndChar

StartChar: percent
Encoding: 37 37 203
Width: 729
Flags: W
HStem: -20 20 -16 66<553 598.5 553 605.5> 254 66<581.5 628.5> 346 66<215 261 215 267.5> 616 66<243.5 290.5>
VStem: 110 57<471 525 471 531> 339 57<503 558.5> 448 57<109 163.5 109 169> 677 57<141 196>
LayerCount: 2
Fore
SplineSet
623 709 m 1xbf80
 677 709 l 1
 226 -20 l 1
 172 -20 l 1
 623 709 l 1xbf80
283 682 m 0
 347 682 396 626 396 552 c 0
 396 444 313 346 222 346 c 0
 157 346 110 402 110 479 c 0
 110 583 194 682 283 682 c 0
270 616 m 0
 217 616 167 556 167 494 c 0
 167 448 196 412 234 412 c 0
 288 412 339 472 339 534 c 0
 339 583 311 616 270 616 c 0
621 320 m 0
 685 320 734 264 734 190 c 0
 734 82 651 -16 560 -16 c 0x6780
 495 -16 448 39 448 117 c 0
 448 221 532 320 621 320 c 0
608 254 m 0
 555 254 505 195 505 132 c 0
 505 86 534 50 572 50 c 0
 625 50 677 110 677 172 c 0
 677 220 649 254 608 254 c 0
EndSplineSet
EndChar

StartChar: perthousand
Encoding: 8240 8240 204
Width: 820
Flags: W
HStem: -20 20 -19 55<385 426.5 385 431 680 722.5> 221 55<410 452 706 748> 430 55<197 239 197 243.5> 670 55<222 263.5> 718 20<532 586 586 586>
VStem: 105 49<535 586.5 535 592.5> 292 49<87 137 87 143> 307 49<569.5 619> 494 49<119.5 170.5> 589 49<86 137.5 86 145> 790 49<119.5 170.5>
LayerCount: 2
Fore
SplineSet
532 738 m 1x8680
 586 738 l 1
 130 -20 l 1
 76 -20 l 1
 532 738 l 1x8680
258 725 m 0x7a80
 314 725 356 677 356 612 c 0
 356 515 284 430 203 430 c 0
 146 430 105 479 105 546 c 0
 105 639 178 725 258 725 c 0x7a80
247 670 m 0
 197 670 154 617 154 556 c 0
 154 514 179 485 215 485 c 0
 263 485 307 539 307 600 c 0
 307 638 280 670 247 670 c 0
445 276 m 0
 503 276 543 230 543 163 c 0
 543 65 472 -19 390 -19 c 0
 335 -19 292 32 292 97 c 0x7970
 292 189 366 276 445 276 c 0
435 221 m 0
 385 221 341 167 341 107 c 0
 341 67 368 36 402 36 c 0
 451 36 494 89 494 150 c 0
 494 191 469 221 435 221 c 0
741 276 m 0
 799 276 839 230 839 163 c 0
 839 65 769 -19 686 -19 c 0
 629 -19 589 29 589 99 c 0
 589 191 662 276 741 276 c 0
731 221 m 0
 681 221 638 168 638 107 c 0
 638 65 662 36 698 36 c 0
 747 36 790 89 790 150 c 0
 790 191 765 221 731 221 c 0
EndSplineSet
EndChar

StartChar: backslash
Encoding: 92 92 205
Width: 228
Flags: MW
HStem: -20 20 709 20<121 166 166 166>
LayerCount: 2
Fore
SplineSet
121 729 m 1
 166 729 l 1
 230 -20 l 1
 185 -20 l 1
 121 729 l 1
EndSplineSet
EndChar

StartChar: dieresis
Encoding: 168 168 206
Width: 273
Flags: MW
HStem: 612 103<148 215 130 233 148 262 280 347>
LayerCount: 2
Fore
SplineSet
233 715 m 1
 215 612 l 1
 130 612 l 1
 148 715 l 1
 233 715 l 1
365 715 m 1
 347 612 l 1
 262 612 l 1
 280 715 l 1
 365 715 l 1
EndSplineSet
EndChar

StartChar: dotaccent
Encoding: 729 729 207
Width: 273
Flags: MW
HStem: 612 103<218 285 200 303>
LayerCount: 2
Fore
SplineSet
303 715 m 1
 285 612 l 1
 200 612 l 1
 218 715 l 1
 303 715 l 1
EndSplineSet
EndChar

StartChar: ring
Encoding: 730 730 208
Width: 273
Flags: MW
HStem: 579 44<235 255 235 258> 710 44<247.5 268.5>
VStem: 177 38<647 672 647 676.5> 288 37<663 686>
LayerCount: 2
Fore
SplineSet
266 754 m 0
 299 754 325 725 325 688 c 0
 325 632 281 579 235 579 c 0
 203 579 177 610 177 650 c 0
 177 703 221 754 266 754 c 0
260 710 m 0
 235 710 215 686 215 658 c 0
 215 636 226 623 244 623 c 0
 266 623 288 650 288 676 c 0
 288 696 277 710 260 710 c 0
EndSplineSet
EndChar

StartChar: acute
Encoding: 180 180 209
Width: 273
Flags: MW
HStem: 720 20<284 376 376 376>
LayerCount: 2
Fore
SplineSet
284 740 m 1
 376 740 l 1
 228 592 l 1
 179 592 l 1
 284 740 l 1
EndSplineSet
EndChar

StartChar: grave
Encoding: 96 96 210
Width: 273
Flags: MW
HStem: 720 20<147 234 234 234>
LayerCount: 2
Fore
SplineSet
234 740 m 1
 293 592 l 1
 249 592 l 1
 147 740 l 1
 234 740 l 1
EndSplineSet
EndChar

StartChar: circumflex
Encoding: 710 710 211
Width: 273
Flags: MW
HStem: 721 20<225 303 303 303>
LayerCount: 2
Fore
SplineSet
225 741 m 1
 303 741 l 1
 355 591 l 1
 304 591 l 1
 258 690 l 1
 172 591 l 1
 120 591 l 1
 225 741 l 1
EndSplineSet
EndChar

StartChar: caron
Encoding: 711 711 212
Width: 273
Flags: MW
HStem: 720 20<144 196 196 196 327 379 379 379>
LayerCount: 2
Fore
SplineSet
274 592 m 1
 196 592 l 1
 144 740 l 1
 196 740 l 1
 242 642 l 1
 327 740 l 1
 379 740 l 1
 274 592 l 1
EndSplineSet
EndChar

StartChar: breve
Encoding: 728 728 213
Width: 273
Flags: MW
HStem: 594 72<229 258.5> 709 20<139 183 183 183 340 386 386 386>
LayerCount: 2
Fore
SplineSet
139 729 m 1
 183 729 l 1
 183 721 l 1
 183 716 l 2
 183 686 209 666 249 666 c 0
 299 666 332 689 340 729 c 1
 386 729 l 1
 376 683 367 662 346 640 c 0
 319 612 278 594 239 594 c 0
 177 594 135 634 135 692 c 0
 135 702 136 711 139 729 c 1
EndSplineSet
EndChar

StartChar: tilde
Encoding: 732 732 214
Width: 273
Flags: W
HStem: 612 70<300 311.5 300 316.5> 644 70<182.5 193.5>
LayerCount: 2
Fore
SplineSet
343 719 m 1x80
 387 719 l 1
 370 656 334 612 299 612 c 0x80
 282 612 265 617 213 639 c 0
 206 642 197 644 190 644 c 0
 175 644 166 638 156 620 c 2
 151 611 l 1
 107 611 l 1
 117 647 124 664 134 680 c 1
 149 701 171 714 192 714 c 0x40
 207 714 220 710 252 697 c 0
 273 689 296 682 304 682 c 0
 319 682 329 691 343 719 c 1x80
EndSplineSet
EndChar

StartChar: hungarumlaut
Encoding: 733 733 215
Width: 273
Flags: MW
HStem: 720 20<180 272 272 272 323 414 414 414>
LayerCount: 2
Fore
SplineSet
180 740 m 1
 272 740 l 1
 124 590 l 1
 75 590 l 1
 180 740 l 1
323 740 m 1
 414 740 l 1
 267 590 l 1
 218 590 l 1
 323 740 l 1
EndSplineSet
EndChar

StartChar: cedilla
Encoding: 184 184 216
Width: 273
Flags: MW
HStem: -214 43<89 110.5 89 132.5>
VStem: 153 64
LayerCount: 2
Fore
SplineSet
135 0 m 1
 169 0 l 1
 144 -56 l 1
 155 -54 158 -54 162 -54 c 0
 192 -54 217 -77 217 -106 c 0
 217 -168 167 -214 98 -214 c 0
 66 -214 43 -206 1 -180 c 1
 24 -142 l 1
 59 -164 77 -171 101 -171 c 0
 120 -171 136 -162 146 -145 c 0
 149 -139 152 -130 153 -116 c 1
 152 -104 141 -94 128 -94 c 0
 123 -94 123 -94 111 -97 c 2
 105 -98 l 1
 95 -92 l 1
 135 0 l 1
EndSplineSet
EndChar

StartChar: ogonek
Encoding: 731 731 217
Width: 273
Flags: MW
HStem: -205 45<128.5 149.5>
VStem: 29 62<-129.5 -101>
LayerCount: 2
Fore
SplineSet
136 0 m 1
 192 0 l 1
 174 -11 l 2
 112 -49 91 -75 91 -116 c 0
 91 -143 112 -160 145 -160 c 0
 167 -160 187 -157 202 -150 c 1
 195 -195 l 1
 178 -202 160 -205 139 -205 c 0
 69 -205 29 -177 29 -129 c 0
 29 -73 61 -35 136 0 c 1
EndSplineSet
EndChar

StartChar: macron
Encoding: 175 175 218
Width: 273
Flags: MW
HStem: 627 69<144 356 131 369>
LayerCount: 2
Fore
SplineSet
369 696 m 1
 356 627 l 1
 131 627 l 1
 144 696 l 1
 369 696 l 1
EndSplineSet
EndChar

StartChar: copyright
Encoding: 169 169 219
Width: 604
Flags: MW
HStem: -22 62<229.5 372 229.5 387> 126 62<294.5 330> 530 62<276 329.5> 680 62<231 373.5>
VStem: -11 56<272.5 448.5 272.5 465.5> 148 57<332 411 332 427.5> 559 56<270.5 449.5>
LayerCount: 2
Fore
SplineSet
446 437 m 1
 387 437 l 1
 374 503 351 530 308 530 c 0
 244 530 205 464 205 358 c 0
 205 306 215 265 234 234 c 0
 251 207 281 188 308 188 c 0
 353 188 383 232 394 312 c 1
 452 312 l 1
 442 249 434 221 417 193 c 0
 389 148 353 126 307 126 c 0
 213 126 148 221 148 357 c 0
 148 498 213 592 309 592 c 0
 383 592 426 543 446 437 c 1
302 742 m 0
 476 742 615 572 615 361 c 0
 615 146 476 -22 298 -22 c 0
 130 -22 -11 152 -11 360 c 0
 -11 571 129 742 302 742 c 0
302 680 m 0
 160 680 45 537 45 360 c 0
 45 185 160 40 299 40 c 0
 445 40 559 180 559 361 c 0
 559 538 445 680 302 680 c 0
EndSplineSet
EndChar

StartChar: registered
Encoding: 174 174 220
Width: 604
Flags: MW
HStem: -22 62<229.5 372 229.5 387> 325 63<222 328 222 328 328 332> 522 63<222 328 222 222> 680 62<231 373.5>
VStem: -11 56<272.5 448.5 272.5 465.5> 165 57<140 325 388 522> 389 60<436 478.5> 559 56<270.5 449.5>
LayerCount: 2
Fore
SplineSet
222 325 m 1
 222 140 l 1
 165 140 l 1
 165 585 l 1
 333 585 l 2
 411 585 449 544 449 460 c 0
 449 412 440 391 405 360 c 1
 435 336 441 319 442 248 c 0
 443 190 446 178 461 165 c 1
 461 140 l 1
 396 140 l 1
 389 159 383 192 383 216 c 2
 384 257 l 1
 384 306 369 325 332 325 c 2
 222 325 l 1
222 388 m 1
 328 388 l 2
 371 388 389 408 389 455 c 0
 389 502 371 522 328 522 c 2
 222 522 l 1
 222 388 l 1
302 742 m 0
 476 742 615 572 615 361 c 0
 615 146 476 -22 298 -22 c 0
 130 -22 -11 152 -11 360 c 0
 -11 571 129 742 302 742 c 0
302 680 m 0
 160 680 45 537 45 360 c 0
 45 185 160 40 299 40 c 0
 445 40 559 180 559 361 c 0
 559 538 445 680 302 680 c 0
EndSplineSet
EndChar

StartChar: bullet
Encoding: 8226 8226 222
Width: 333
Flags: MW
HStem: 520 20<231.5 316>
LayerCount: 2
Fore
SplineSet
282 540 m 0
 350 540 406 483 406 413 c 0
 406 315 314 225 213 225 c 0
 145 225 90 281 90 352 c 0
 90 451 181 540 282 540 c 0
EndSplineSet
EndChar

StartChar: lozenge
Encoding: 9674 9674 223
Width: 386
Flags: MW
HStem: 0 20 724 20<165 216 216 216>
LayerCount: 2
Fore
SplineSet
216 744 m 1
 374 372 l 1
 216 0 l 1
 165 0 l 1
 8 372 l 1
 165 744 l 1
 216 744 l 1
191 60 m 1
 323 372 l 1
 191 684 l 1
 60 372 l 1
 191 60 l 1
EndSplineSet
EndChar

StartChar: increment
Encoding: 8710 8710 224
Width: 502
Flags: MW
HStem: 0 82<77 424 77 535> 709 20<209 291 291 291>
LayerCount: 2
Fore
SplineSet
-32 0 m 1
 209 729 l 1
 291 729 l 1
 535 0 l 1
 -32 0 l 1
251 616 m 1
 77 82 l 1
 424 82 l 1
 251 616 l 1
EndSplineSet
EndChar

StartChar: notequal
Encoding: 8800 8800 225
Width: 450
Flags: MW
HStem: 111 70<27 129 27 162 27 184 216 424> 283 70<27 208 27 241 27 263 295 424>
LayerCount: 2
Fore
SplineSet
129 111 m 1
 27 111 l 1
 27 181 l 1
 162 181 l 1
 208 283 l 1
 27 283 l 1
 27 353 l 1
 241 353 l 1
 303 486 l 1
 344 458 l 1
 295 353 l 1
 424 353 l 1
 424 283 l 1
 263 283 l 1
 216 181 l 1
 424 181 l 1
 424 111 l 1
 184 111 l 1
 122 -25 l 1
 80 4 l 1
 129 111 l 1
EndSplineSet
EndChar

StartChar: radical
Encoding: 8730 8730 226
Width: 372
Flags: W
LayerCount: 2
Fore
SplineSet
377 913 m 1
 406 908 l 1
 282 -36 l 1
 84 461 l 1
 7 415 l 1
 -8 448 l 1
 113 521 l 1
 272 125 l 1
 377 913 l 1
EndSplineSet
EndChar

StartChar: lessequal
Encoding: 8804 8804 227
Width: 450
Flags: MW
HStem: -11 67<23 424 23 424>
LayerCount: 2
Fore
SplineSet
424 56 m 1
 424 -11 l 1
 23 -11 l 1
 23 56 l 1
 424 56 l 1
23 363 m 1
 23 432 l 1
 424 639 l 1
 424 560 l 1
 101 399 l 1
 424 235 l 1
 424 156 l 1
 23 363 l 1
EndSplineSet
EndChar

StartChar: greaterequal
Encoding: 8805 8805 228
Width: 450
Flags: MW
HStem: -11 67<23 424 23 424>
LayerCount: 2
Fore
SplineSet
424 56 m 1
 424 -11 l 1
 23 -11 l 1
 23 56 l 1
 424 56 l 1
424 432 m 1
 424 363 l 1
 23 156 l 1
 23 235 l 1
 346 396 l 1
 23 560 l 1
 23 639 l 1
 424 432 l 1
EndSplineSet
EndChar

StartChar: product
Encoding: 8719 8719 229
Width: 785
Flags: MW
HStem: -281 75<-3 86 167 243 -19 86 437 530 611 684> 769 75<220 293 204 923 374 737 374 374 818 907 818 818>
LayerCount: 2
Fore
SplineSet
220 844 m 1
 923 844 l 1
 907 769 l 1
 818 769 l 1
 611 -206 l 1
 700 -206 l 1
 684 -281 l 1
 421 -281 l 1
 437 -206 l 1
 530 -206 l 1
 737 769 l 1
 374 769 l 1
 167 -206 l 1
 259 -206 l 1
 243 -281 l 1
 -19 -281 l 1
 -3 -206 l 1
 86 -206 l 1
 293 769 l 1
 204 769 l 1
 220 844 l 1
EndSplineSet
EndChar

StartChar: summation
Encoding: 8721 8721 230
Width: 492
Flags: MW
HStem: -134 72<97 372 97 433> 673 73<97 365 97 97>
LayerCount: 2
Fore
SplineSet
427 746 m 1
 427 531 l 1
 369 531 l 1
 365 673 l 1
 97 673 l 1
 264 324 l 1
 97 -62 l 1
 372 -62 l 1
 374 81 l 1
 433 81 l 1
 433 -134 l 1
 24 -134 l 1
 24 -63 l 1
 192 323 l 1
 24 676 l 1
 24 746 l 1
 427 746 l 1
EndSplineSet
EndChar

StartChar: partialdiff
Encoding: 8706 8706 231
Width: 390
Flags: MW
HStem: -15 32<134.5 180 134.5 199> 367 41<171.5 195.5 153 222> 703 47<156 186.5 135.5 190>
VStem: 13 71<124.5 211.5> 305 65<437 450.5 349.5 493>
LayerCount: 2
Fore
SplineSet
78 670 m 1
 46 722 l 1
 79 740 117 750 154 750 c 0
 219 750 282 706 322 631 c 0
 354 572 370 496 370 405 c 0
 370 294 347 168 314 98 c 0
 279 24 229 -15 169 -15 c 0
 81 -15 13 70 13 179 c 0
 13 244 35 310 74 358 c 0
 101 392 133 408 173 408 c 0
 218 408 240 396 297 343 c 1
 303 396 305 419 305 455 c 0
 305 531 288 605 261 651 c 0
 241 685 209 703 171 703 c 0
 141 703 132 700 85 674 c 2
 78 670 l 1
291 304 m 1
 270 345 240 367 204 367 c 0
 139 367 84 271 84 155 c 0
 84 69 111 17 158 17 c 0
 202 17 240 61 262 139 c 0
 274 183 278 206 291 304 c 1
EndSplineSet
EndChar

StartChar: pi
Encoding: 960 960 232
Width: 651
Flags: MW
HStem: 0 20 466 73<146 214 130 735 295 295 295 556 637 637 637 719>
LayerCount: 2
Fore
SplineSet
115 0 m 1
 214 466 l 1
 130 466 l 1
 146 539 l 1
 735 539 l 1
 719 466 l 1
 637 466 l 1
 538 0 l 1
 457 0 l 1
 556 466 l 1
 295 466 l 1
 196 0 l 1
 115 0 l 1
EndSplineSet
EndChar

StartChar: Omega
Encoding: 937 937 233
Width: 750
Flags: MW
HStem: 0 73<32 250 47 250 47 326 532 718> 695 73<483 580.5 423 587>
VStem: 110 80<302 358.5 271 446> 729 84<442 526 442 546>
LayerCount: 2
Fore
SplineSet
32 0 m 1
 47 73 l 1
 250 73 l 1
 207 105 175 142 144 193 c 0
 121 232 110 276 110 328 c 0
 110 564 308 768 538 768 c 0
 623 768 685 741 739 681 c 0
 789 625 813 563 813 489 c 0
 813 395 777 294 716 213 c 0
 667 149 625 117 532 73 c 1
 734 73 l 1
 718 0 l 1
 425 0 l 1
 439 66 l 1
 630 170 729 313 729 483 c 0
 729 609 647 695 527 695 c 0
 439 695 349 648 279 565 c 0
 222 497 190 405 190 312 c 0
 190 230 216 165 267 117 c 0
 288 98 304 86 340 66 c 1
 326 0 l 1
 32 0 l 1
EndSplineSet
EndChar

StartChar: less
Encoding: 60 60 234
Width: 500
Flags: W
LayerCount: 2
Fore
SplineSet
630 642 m 1
 613 561 l 1
 173 379 l 1
 535 196 l 1
 518 116 l 1
 79 344 l 1
 94 414 l 1
 630 642 l 1
EndSplineSet
EndChar

StartChar: greater
Encoding: 62 62 235
Width: 500
Flags: W
LayerCount: 2
Fore
SplineSet
31 116 m 1
 48 196 l 1
 488 379 l 1
 126 561 l 1
 143 641 l 1
 581 413 l 1
 566 343 l 1
 31 116 l 1
EndSplineSet
EndChar

StartChar: logicalnot
Encoding: 172 172 236
Width: 479
Flags: MW
HStem: 305 70<33 389 33 446>
VStem: 389 57<86 305 305 305>
LayerCount: 2
Fore
SplineSet
33 375 m 1
 446 375 l 1
 446 86 l 1
 389 86 l 1
 389 305 l 1
 33 305 l 1
 33 375 l 1
EndSplineSet
EndChar

StartChar: asciicircum
Encoding: 94 94 237
Width: 500
Flags: W
LayerCount: 2
Fore
SplineSet
172 411 m 1
 85 411 l 1
 357 752 l 1
 463 752 l 1
 590 411 l 1
 502 411 l 1
 395 688 l 1
 172 411 l 1
EndSplineSet
EndChar

StartChar: bar
Encoding: 124 124 238
Width: 250
Flags: MW
HStem: 730 20<244 325 325 325>
LayerCount: 2
Fore
SplineSet
244 750 m 1
 325 750 l 1
 126 -187 l 1
 45 -187 l 1
 244 750 l 1
EndSplineSet
EndChar

StartChar: brokenbar
Encoding: 166 166 239
Width: 250
Flags: MW
HStem: 730 20<244 325 325 325>
LayerCount: 2
Fore
SplineSet
244 750 m 1
 325 750 l 1
 245 376 l 1
 165 376 l 1
 244 750 l 1
122 173 m 1
 202 173 l 1
 126 -187 l 1
 45 -187 l 1
 122 173 l 1
EndSplineSet
EndChar

StartChar: underscore
Encoding: 95 95 240
Width: 500
Flags: MW
HStem: -148 74<-47 500 -63 515>
LayerCount: 2
Fore
SplineSet
-47 -74 m 1
 515 -74 l 1
 500 -148 l 1
 -63 -148 l 1
 -47 -74 l 1
EndSplineSet
EndChar

StartChar: asciitilde
Encoding: 126 126 241
Width: 500
Flags: W
HStem: 663 77<513.5 517.5> 739 77<284.5 293.5>
LayerCount: 2
Fore
SplineSet
167 656 m 1x40
 126 687 l 1
 149 720 166 743 184 761 c 0
 217 796 262 816 307 816 c 0x40
 337 816 371 804 425 776 c 0
 482 747 501 740 526 740 c 0
 566 740 598 761 646 818 c 1
 688 789 l 1
 654 739 635 718 607 698 c 0
 575 676 535 663 500 663 c 0x80
 469 663 445 672 355 718 c 0
 328 731 302 739 285 739 c 0
 249 739 211 712 167 656 c 1x40
EndSplineSet
EndChar

StartChar: mu
Encoding: 956 956 242
Width: 516
Flags: MW
HStem: -7 59<247 277.5>
LayerCount: 2
Fore
SplineSet
201 555 m 1
 282 555 l 1
 209 211 l 2
 203 181 198 148 198 133 c 0
 198 86 227 52 267 52 c 0
 294 52 323 68 347 94 c 1
 371 122 383 150 396 211 c 2
 469 555 l 1
 550 555 l 1
 432 0 l 1
 357 0 l 1
 369 56 l 1
 333 12 299 -7 256 -7 c 0
 221 -7 200 8 170 56 c 1
 120 -180 l 1
 45 -180 l 1
 201 555 l 1
EndSplineSet
EndChar
